# This file uses centimeters as units for non-parametric coordinates.

mtllib SZS Pickaxe.mtl
g default
v 2.289156 22.210842 0.723754
v 41.633438 2.801337 1.178310
v 3.247194 27.361053 0.715521
v 46.548592 5.482966 1.080581
v 24.257608 18.999996 0.750000
v 25.593269 21.910414 0.750000
v 18.101696 21.027887 0.750000
v 19.274578 24.143440 0.750000
v 34.678921 12.584726 0.822656
v 36.485104 15.055166 0.750000
v 10.667412 22.158194 0.750000
v 11.686021 25.348543 0.750000
v 29.644791 16.138643 0.750000
v 31.089111 18.697186 0.750000
v 38.657902 8.384962 0.651014
v 41.271362 10.946350 0.750000
v 36.993576 10.281317 0.720972
v 38.929688 13.066779 0.750000
v 32.981407 13.849348 0.826713
v 34.596375 16.378002 0.750000
v 42.741287 1.151393 1.178447
v 47.313057 3.783854 1.080581
v 46.303101 0.659653 0.639513
v 47.710629 1.498644 0.639513
v 5.238018 22.172199 0.823203
v 5.093264 27.118780 0.818809
v 7.027271 22.270317 0.750000
v 7.396456 25.962563 0.750000
v 31.981049 11.656404 0.215751
v 32.201332 11.434357 0.220031
v 36.683395 8.740872 0.284691
v 37.297745 8.260219 0.270053
v 32.698654 12.588675 0.552416
v 33.309406 12.037839 0.566860
v 40.828072 1.694162 0.482355
v 41.215027 1.174887 0.482355
v 41.307014 3.940449 0.776902
v 45.441963 6.401268 0.797226
v 7.897188 32.719711 0.074071
v 8.011978 32.813637 0.075514
v 3.562632 27.539486 0.345725
v 4.436092 27.402164 0.353826
v 5.016230 28.763214 0.387872
v 4.496416 29.198610 0.381991
v 5.608589 30.405083 0.279121
v 6.730305 31.608725 0.176361
v 6.033051 30.081530 0.283947
v 7.145277 31.371563 0.181139
v 6.702360 3.852367 0.139292
v 6.404909 4.355029 0.139293
v 4.300591 22.042610 0.378435
v 4.669378 20.809027 0.720045
v 2.770409 21.977577 0.378435
v 1.806860 20.743980 0.720045
v 4.256283 18.560719 0.712383
v 4.599791 16.838125 0.672524
v 2.106001 18.495682 0.716914
v 2.273539 16.787067 0.686962
v 4.613413 11.376410 0.424543
v 5.290854 9.240634 0.328481
v 5.904829 11.413504 0.417311
v 6.324610 9.269341 0.326906
v 6.680836 12.602070 0.085771
v 6.460491 10.410583 0.371964
v 3.092497 14.893341 0.613034
v 5.056555 14.939507 0.596107
v 5.468105 17.913719 0.125021
v 5.205225 15.956940 0.638931
v 5.742479 7.816780 0.286775
v 6.039923 6.036961 0.267960
v 6.604460 7.839891 0.288556
v 6.687181 5.895076 0.267960
v 7.177183 8.410641 0.054932
v 6.784285 6.527760 0.270357
v 6.879021 10.259144 0.066116
v 6.693087 8.805317 0.313736
v 3.911453 12.999613 0.513655
v 5.513319 13.040892 0.500450
v 6.266968 13.988295 0.098126
v 6.060255 12.307203 0.461782
v 5.769609 16.085831 0.115014
v 5.595646 14.113163 0.554506
v 3.848335 22.876812 1.000000
v 3.613478 22.226774 0.965006
v 5.097836 22.865959 1.000000
v 2.783895 22.886250 0.750000
v 47.473717 0.538793 -0.000000
v 46.690796 0.584496 -0.000000
v 46.962616 0.667526 0.812968
v 2.429081 22.889395 0.000000
v 1.847717 22.205532 0.000000
v 27.342588 18.027485 1.000000
v 24.477169 19.478422 1.000000
v 27.114309 17.577923 0.750000
v 29.889515 16.554073 1.000000
v 28.560070 20.425144 -0.000000
v 25.648159 22.030022 0.000000
v 28.503002 20.312754 0.750000
v 31.147331 18.803131 -0.000000
v 27.038216 17.428068 -0.000000
v 24.184422 18.840521 -0.000000
v 29.563217 16.000166 0.000000
v 21.556458 20.635126 1.000000
v 18.294498 21.540035 1.000000
v 21.350567 20.135622 0.750000
v 22.654547 23.299128 0.000000
v 19.322781 24.271477 -0.000000
v 22.603073 23.174253 0.750000
v 21.281937 19.969120 0.000000
v 18.037428 20.857170 0.000000
v 36.260910 12.001273 0.972009
v 35.156860 13.018461 0.993002
v 35.951492 11.596241 0.715011
v 37.370689 10.919941 0.942782
v 37.755062 14.194880 -0.000000
v 36.545815 15.156704 -0.000000
v 37.687462 14.091532 0.750000
v 39.005718 13.172499 0.000000
v 35.848354 11.461230 -0.000000
v 34.621693 12.422016 -0.000000
v 36.880135 10.147379 -0.000000
v 14.405331 22.235596 1.000000
v 10.821443 22.682062 1.000000
v 14.219504 21.719879 0.750000
v 15.396406 24.986073 0.000000
v 11.729968 25.479742 0.000000
v 15.349949 24.857143 0.750000
v 14.157563 21.547972 0.000000
v 10.616068 21.983570 -0.000000
v 33.299507 14.374391 1.000000
v 34.654854 16.479965 0.000000
v 32.874611 13.826060 0.000000
v 40.733253 6.452415 0.938389
v 42.007988 4.297729 1.046709
v 39.267521 8.752385 0.901443
v 40.186428 6.063451 0.672987
v 43.572273 8.698909 -0.000000
v 41.369591 11.054955 -0.000000
v 43.440407 8.590917 0.750000
v 45.608589 6.509746 -0.000000
v 40.004150 5.933796 -0.000000
v 38.664276 8.203072 -0.000000
v 41.073357 3.821355 0.000000
v 38.259781 10.039269 0.911083
v 37.795158 9.453616 0.786736
v 40.028984 12.336004 0.000000
v 39.946053 12.228346 0.750000
v 36.834053 8.316852 -0.000000
v 36.500111 8.653427 0.000000
v 37.274300 8.106529 -0.000000
v 36.887207 8.379978 0.328324
v 34.284966 13.706697 1.000000
v 33.865063 13.231475 0.973924
v 35.646770 15.811529 0.000000
v 35.588337 15.710254 0.750000
v 31.927301 11.425303 0.000000
v 31.849669 11.572324 0.000000
v 32.090519 11.323044 0.000000
v 31.970093 11.447684 0.237127
v 40.876419 1.379919 -0.000000
v 40.717514 1.698755 -0.000000
v 41.198601 1.122515 -0.000000
v 40.958054 1.410635 0.560394
v 47.128799 4.878591 -0.000000
v 46.741814 5.600275 0.000000
v 46.932930 4.759754 1.127806
v 47.483459 3.892593 -0.000000
v 42.921165 2.408078 1.503742
v 42.569695 3.209059 1.440603
v 42.034222 1.950516 1.390259
v 43.780056 1.649784 1.440774
v 44.793991 0.733787 -0.000000
v 42.846226 0.931873 -0.000000
v 44.952820 0.813771 0.938903
v 47.678215 2.484097 -0.000000
v 47.584190 2.405654 0.938903
v 47.772133 1.231239 -0.000000
v 45.429298 1.053728 1.251871
v 2.858957 26.910717 0.000000
v 3.149321 26.847452 0.750000
v 47.824280 0.712158 -0.000000
v 47.693741 1.076700 0.812968
v 47.302109 2.170326 1.251871
v 46.801826 3.457640 1.440774
v 46.345322 4.403244 1.503742
v 45.968937 5.131044 1.440774
v 43.044796 8.266941 1.000000
v 40.976662 10.620536 1.000000
v 44.942097 6.075837 1.062968
v 39.697258 11.905367 1.000000
v 38.701591 12.749622 1.000000
v 37.484665 13.781488 1.000000
v 36.302979 14.750558 1.000000
v 35.413033 15.406424 1.000000
v 34.420933 16.072109 1.000000
v 30.914452 18.379345 1.000000
v 28.331793 19.975582 1.000000
v 25.428598 21.551596 1.000000
v 22.448654 22.799629 1.000000
v 19.129976 23.759333 1.000000
v 15.210578 24.470360 1.000000
v 11.554180 24.954945 1.000000
v 4.019003 26.655334 1.000000
v 5.123491 26.339779 1.000000
v 4.037218 27.255310 0.955739
v 8.475321 22.839691 1.000000
v 6.994829 22.851017 1.000000
v 8.408833 22.289431 0.750000
v 9.024502 25.235329 1.000000
v 7.314783 25.492188 1.000000
v 9.139635 25.650816 0.750000
v 9.178013 25.789310 -0.000000
v 7.423681 26.119354 -0.000000
v 8.386669 22.106010 -0.000000
v 7.038084 22.076748 0.000000
v 6.007835 22.858566 1.000000
v 6.106228 22.257572 0.750000
v 6.139027 22.057240 0.000000
v 5.597097 22.046267 0.000000
v 6.150120 26.674442 0.000000
v 6.142155 26.482384 0.750000
v 6.118265 25.906200 1.000000
v 32.877403 13.240116 0.000000
v 32.596863 12.680481 -0.000000
v 33.022812 13.123741 0.666957
v 34.040672 12.309124 -0.000000
v 33.895264 12.425498 0.676586
v 33.411198 11.946032 -0.000000
v 33.459038 12.774620 0.895695
v 33.004032 12.313257 0.746183
v 36.677803 9.379599 0.000000
v 36.829826 9.245955 0.460112
v 37.893986 8.310450 0.000000
v 37.741962 8.444094 0.427177
v 37.285896 8.845024 0.591526
v 3.011959 25.031315 0.000000
v 3.279854 24.973738 0.750000
v 4.083530 24.801003 1.000000
v 5.093815 24.585327 1.000000
v 5.981529 24.398926 1.000000
v 7.078730 24.245152 1.000000
v 8.717479 24.127359 1.000000
v 11.202604 23.905350 1.000000
v 14.838924 23.438932 1.000000
v 18.744370 22.735044 1.000000
v 22.036871 21.800629 1.000000
v 24.989479 20.594748 1.000000
v 27.875237 19.076462 1.000000
v 30.448694 17.531769 1.000000
v 33.953087 15.256392 1.000000
v 34.945553 14.596210 1.000000
v 35.817307 13.938269 1.000000
v 36.943863 12.954707 1.000000
v 38.093330 11.903869 1.000000
v 39.033806 11.044092 1.000000
v 40.190804 9.751697 1.000000
v 41.989838 7.403004 1.000000
v 43.609116 5.208015 1.062968
v 44.778374 3.452552 1.503742
v 44.423180 4.192591 1.440774
v 45.424911 2.605819 1.440774
v 46.495308 1.615114 1.251871
v 47.457047 0.818096 0.812968
v 47.777626 0.552423 -0.000000
v 32.182388 12.074839 -0.000000
v 32.246086 12.012257 0.374878
v 32.437180 11.824512 0.506257
v 32.628269 11.636766 0.384508
v 32.691967 11.574184 -0.000000
v 40.897911 2.151606 -0.000000
v 41.209816 2.561344 0.000000
v 40.994202 2.002837 0.787359
v 41.692238 1.035067 -0.000000
v 41.588173 1.121110 0.787359
v 41.346729 1.599241 1.049812
v 42.541374 3.289645 1.251186
v 41.759109 2.930273 0.938047
v 44.325481 4.219680 1.251871
v 45.807659 5.121427 1.251871
v 46.363472 5.459581 0.938903
v 46.548744 5.572299 -0.000000
v 41.482162 2.799617 0.000000
v 4.024305 27.461510 0.822956
v 4.719587 27.394508 0.617558
v 3.999363 27.470825 0.349775
v 3.330835 27.528318 0.612082
v 5.319899 22.042610 0.000000
v 4.883900 22.034481 0.645017
v 3.575903 22.010094 0.860022
v 2.267904 21.985706 0.645017
v 3.598333 22.010094 0.378435
v 1.861864 21.940022 -0.000000
v 5.077791 22.307892 0.440479
v 4.302370 22.275375 0.682605
v 2.787743 22.242861 0.596250
v 3.489496 27.389038 0.406221
v 3.995825 27.320379 0.645912
v 4.507769 27.251719 0.415664
v 4.669378 20.809027 -0.000000
v 4.256283 18.560719 0.000000
v 4.599791 16.838125 0.000000
v 5.468105 17.913719 -0.000000
v 5.205225 15.956940 0.000000
v 5.056555 14.939507 -0.000000
v 5.769609 16.085831 -0.000000
v 5.595646 14.113163 0.000000
v 5.513319 13.040892 0.000000
v 6.266968 13.988295 -0.000000
v 6.060255 12.307203 0.000000
v 5.904829 11.413504 0.000000
v 6.680836 12.602070 0.000000
v 6.460491 10.410583 0.000000
v 6.324610 9.269341 -0.000000
v 6.879021 10.259144 0.000000
v 6.693087 8.805317 0.000000
v 6.604460 7.839891 0.000000
v 7.177183 8.410641 -0.000000
v 6.784285 6.527760 0.000000
v 6.687181 5.895076 -0.000000
v 6.702360 3.852367 -0.000000
v 6.404909 4.355029 -0.000000
v 6.039923 6.036961 0.000000
v 5.742479 7.816780 -0.000000
v 5.290854 9.240634 -0.000000
v 4.613413 11.376410 -0.000000
v 3.911453 12.999613 -0.000000
v 3.092497 14.893341 -0.000000
v 2.273539 16.787067 -0.000000
v 2.106001 18.495682 -0.000000
v 1.806860 20.743980 -0.000000
v 31.576378 14.915710 0.750000
v 31.854267 15.297945 1.000000
v 32.458855 16.220758 1.000000
v 32.926991 17.047092 1.000000
v 33.102539 17.356966 0.750000
v 33.161057 17.460257 0.000000
v 31.483746 14.788300 0.000000
v 31.857904 15.135069 1.170046
v 31.805965 15.230881 1.103722
v 31.519022 14.687962 0.882209
v 31.488544 14.800712 0.822554
v 33.391281 17.655251 -0.000000
v 33.267738 17.637024 0.000000
v 33.322056 17.535355 0.878056
v 33.204002 17.524694 0.829916
v 31.415205 14.542304 -0.000000
v 31.388372 14.664845 -0.000000
v 33.114460 17.175440 1.170999
v 33.026207 17.211946 1.088500
v 32.569511 16.214354 1.170859
v 32.474361 16.242077 1.090201
v 2.985029 27.395012 -0.000000
v 5.334065 27.182598 -0.000000
v 8.012880 32.813690 -0.000000
v 7.898070 32.719761 -0.000000
v 4.440320 27.402538 0.000000
v 5.020864 28.763508 -0.000000
v 3.566760 27.539850 -0.000000
v 4.500979 29.198898 0.000000
v 5.611923 30.405293 -0.000000
v 6.732410 31.608856 -0.000000
v 6.036442 30.081745 -0.000000
v 7.147441 31.371698 -0.000000
v 4.669378 20.809027 0.000000
v 2.858957 26.910717 -0.000000
v 6.150120 26.674442 0.000000
v 4.951760 27.372515 -0.000000
v 3.106708 27.549484 -0.000000
v 4.300591 22.042612 -0.000000
v 5.319899 22.042610 0.000000
v 2.741157 21.618732 -0.000000
v 1.861864 21.940022 -0.000000
v 5.271521 22.307892 0.000000
v 2.153926 22.242859 -0.000000
v 4.783172 27.252094 0.000000
v 3.233202 27.389404 -0.000000
v 1.806860 20.743980 -0.000000
v 4.797730 27.296999 0.000000
v 3.299462 27.506699 -0.000000
v 2.289156 22.210842 -0.723754
v 41.633438 2.801337 -1.178310
v 3.247194 27.361053 -0.715521
v 46.548592 5.482966 -1.080581
v 24.257608 18.999996 -0.750000
v 25.593269 21.910414 -0.750000
v 18.101696 21.027887 -0.750000
v 19.274578 24.143440 -0.750000
v 34.678921 12.584726 -0.822656
v 36.485104 15.055166 -0.750000
v 10.667412 22.158194 -0.750000
v 11.686021 25.348543 -0.750000
v 29.644791 16.138643 -0.750000
v 31.089111 18.697186 -0.750000
v 38.657902 8.384962 -0.651014
v 41.271362 10.946350 -0.750000
v 36.993576 10.281317 -0.720972
v 38.929688 13.066779 -0.750000
v 32.981407 13.849348 -0.826713
v 34.596375 16.378002 -0.750000
v 42.741287 1.151393 -1.178447
v 47.313057 3.783854 -1.080581
v 46.303101 0.659653 -0.639513
v 47.710629 1.498644 -0.639513
v 5.238018 22.172199 -0.823203
v 5.093264 27.118780 -0.818809
v 7.027271 22.270317 -0.750000
v 7.396456 25.962563 -0.750000
v 31.981049 11.656404 -0.215751
v 32.201332 11.434357 -0.220031
v 36.683395 8.740872 -0.284691
v 37.297745 8.260219 -0.270053
v 32.698654 12.588675 -0.552416
v 33.309406 12.037839 -0.566860
v 40.828072 1.694162 -0.482355
v 41.215027 1.174887 -0.482355
v 41.307014 3.940449 -0.776902
v 45.441963 6.401268 -0.797226
v 7.897188 32.719711 -0.074071
v 8.011978 32.813637 -0.075514
v 3.562632 27.539486 -0.345725
v 4.436092 27.402164 -0.353826
v 5.016230 28.763214 -0.387872
v 4.496416 29.198610 -0.381991
v 5.608589 30.405083 -0.279121
v 6.730305 31.608725 -0.176361
v 6.033051 30.081530 -0.283947
v 7.145277 31.371563 -0.181139
v 6.702360 3.852367 -0.139292
v 6.404909 4.355029 -0.139293
v 4.300591 22.042610 -0.378435
v 4.669378 20.809027 -0.720045
v 2.770409 21.977577 -0.378435
v 1.806860 20.743980 -0.720045
v 4.256283 18.560719 -0.712383
v 4.599791 16.838125 -0.672524
v 2.106001 18.495682 -0.716914
v 2.273539 16.787067 -0.686962
v 4.613413 11.376410 -0.424543
v 5.290854 9.240634 -0.328481
v 5.904829 11.413504 -0.417311
v 6.324610 9.269341 -0.326906
v 6.680836 12.602070 -0.085771
v 6.460491 10.410583 -0.371964
v 3.092497 14.893341 -0.613034
v 5.056555 14.939507 -0.596107
v 5.468105 17.913719 -0.125021
v 5.205225 15.956940 -0.638931
v 5.742479 7.816780 -0.286775
v 6.039923 6.036961 -0.267960
v 6.604460 7.839891 -0.288556
v 6.687181 5.895076 -0.267960
v 7.177183 8.410641 -0.054932
v 6.784285 6.527760 -0.270357
v 6.879021 10.259144 -0.066116
v 6.693087 8.805317 -0.313736
v 3.911453 12.999613 -0.513655
v 5.513319 13.040892 -0.500450
v 6.266968 13.988295 -0.098126
v 6.060255 12.307203 -0.461782
v 5.769609 16.085831 -0.115014
v 5.595646 14.113163 -0.554506
v 3.848335 22.876812 -1.000000
v 3.613478 22.226774 -0.965006
v 5.097836 22.865959 -1.000000
v 2.783895 22.886250 -0.750000
v 46.962616 0.667526 -0.812968
v 27.342588 18.027485 -1.000000
v 24.477169 19.478422 -1.000000
v 27.114309 17.577923 -0.750000
v 29.889515 16.554073 -1.000000
v 28.503002 20.312754 -0.750000
v 21.556458 20.635126 -1.000000
v 18.294498 21.540035 -1.000000
v 21.350567 20.135622 -0.750000
v 22.603073 23.174253 -0.750000
v 36.260910 12.001273 -0.972009
v 35.156860 13.018461 -0.993002
v 35.951492 11.596241 -0.715011
v 37.370689 10.919941 -0.942782
v 37.687462 14.091532 -0.750000
v 14.405331 22.235596 -1.000000
v 10.821443 22.682062 -1.000000
v 14.219504 21.719879 -0.750000
v 15.349949 24.857143 -0.750000
v 33.299507 14.374391 -1.000000
v 40.733253 6.452415 -0.938389
v 42.007988 4.297729 -1.046709
v 39.267521 8.752385 -0.901443
v 40.186428 6.063451 -0.672987
v 43.440407 8.590917 -0.750000
v 38.259781 10.039269 -0.911083
v 37.795158 9.453616 -0.786736
v 39.946053 12.228346 -0.750000
v 36.887207 8.379978 -0.328324
v 34.284966 13.706697 -1.000000
v 33.865063 13.231475 -0.973924
v 35.588337 15.710254 -0.750000
v 31.970093 11.447684 -0.237127
v 40.958054 1.410635 -0.560394
v 46.932930 4.759754 -1.127806
v 42.921165 2.408078 -1.503742
v 42.569695 3.209059 -1.440603
v 42.034222 1.950516 -1.390259
v 43.780056 1.649784 -1.440774
v 44.952820 0.813771 -0.938903
v 47.584190 2.405654 -0.938903
v 45.429298 1.053728 -1.251871
v 3.149321 26.847452 -0.750000
v 47.693741 1.076700 -0.812968
v 47.302109 2.170326 -1.251871
v 46.801826 3.457640 -1.440774
v 46.345322 4.403244 -1.503742
v 45.968937 5.131044 -1.440774
v 43.044796 8.266941 -1.000000
v 40.976662 10.620536 -1.000000
v 44.942097 6.075837 -1.062968
v 39.697258 11.905367 -1.000000
v 38.701591 12.749622 -1.000000
v 37.484665 13.781488 -1.000000
v 36.302979 14.750558 -1.000000
v 35.413033 15.406424 -1.000000
v 34.420933 16.072109 -1.000000
v 30.914452 18.379345 -1.000000
v 28.331793 19.975582 -1.000000
v 25.428598 21.551596 -1.000000
v 22.448654 22.799629 -1.000000
v 19.129976 23.759333 -1.000000
v 15.210578 24.470360 -1.000000
v 11.554180 24.954945 -1.000000
v 4.019003 26.655334 -1.000000
v 5.123491 26.339779 -1.000000
v 4.037218 27.255310 -0.955739
v 8.475321 22.839691 -1.000000
v 6.994829 22.851017 -1.000000
v 8.408833 22.289431 -0.750000
v 9.024502 25.235329 -1.000000
v 7.314783 25.492188 -1.000000
v 9.139635 25.650816 -0.750000
v 6.007835 22.858566 -1.000000
v 6.106228 22.257572 -0.750000
v 6.142155 26.482384 -0.750000
v 6.118265 25.906200 -1.000000
v 33.022812 13.123741 -0.666957
v 33.895264 12.425498 -0.676586
v 33.459038 12.774620 -0.895695
v 33.004032 12.313257 -0.746183
v 36.829826 9.245955 -0.460112
v 37.741962 8.444094 -0.427177
v 37.285896 8.845024 -0.591526
v 3.279854 24.973738 -0.750000
v 4.083530 24.801003 -1.000000
v 5.093815 24.585327 -1.000000
v 5.981529 24.398926 -1.000000
v 7.078730 24.245152 -1.000000
v 8.717479 24.127359 -1.000000
v 11.202604 23.905350 -1.000000
v 14.838924 23.438932 -1.000000
v 18.744370 22.735044 -1.000000
v 22.036871 21.800629 -1.000000
v 24.989479 20.594748 -1.000000
v 27.875237 19.076462 -1.000000
v 30.448694 17.531769 -1.000000
v 33.953087 15.256392 -1.000000
v 34.945553 14.596210 -1.000000
v 35.817307 13.938269 -1.000000
v 36.943863 12.954707 -1.000000
v 38.093330 11.903869 -1.000000
v 39.033806 11.044092 -1.000000
v 40.190804 9.751697 -1.000000
v 41.989838 7.403004 -1.000000
v 43.609116 5.208015 -1.062968
v 44.778374 3.452552 -1.503742
v 44.423180 4.192591 -1.440774
v 45.424911 2.605819 -1.440774
v 46.495308 1.615114 -1.251871
v 47.457047 0.818096 -0.812968
v 32.246086 12.012257 -0.374878
v 32.437180 11.824512 -0.506257
v 32.628269 11.636766 -0.384508
v 40.994202 2.002837 -0.787359
v 41.588173 1.121110 -0.787359
v 41.346729 1.599241 -1.049812
v 42.541374 3.289645 -1.251186
v 41.759109 2.930273 -0.938047
v 44.325481 4.219680 -1.251871
v 45.807659 5.121427 -1.251871
v 46.363472 5.459581 -0.938903
v 4.024305 27.461510 -0.822956
v 4.719587 27.394508 -0.617558
v 3.999363 27.470825 -0.349775
v 3.330835 27.528318 -0.612082
v 4.883900 22.034481 -0.645017
v 3.575903 22.010094 -0.860022
v 2.267904 21.985706 -0.645017
v 3.598333 22.010094 -0.378435
v 5.077791 22.307892 -0.440479
v 4.302370 22.275375 -0.682605
v 2.787743 22.242861 -0.596250
v 3.489496 27.389038 -0.406221
v 3.995825 27.320379 -0.645912
v 4.507769 27.251719 -0.415664
v 31.576378 14.915710 -0.750000
v 31.854267 15.297945 -1.000000
v 32.458855 16.220758 -1.000000
v 32.926991 17.047092 -1.000000
v 33.102539 17.356966 -0.750000
v 31.857904 15.135069 -1.170046
v 31.805965 15.230881 -1.103722
v 31.519022 14.687962 -0.882209
v 31.488544 14.800712 -0.822554
v 33.322056 17.535355 -0.878056
v 33.204002 17.524694 -0.829916
v 33.114460 17.175440 -1.170999
v 33.026207 17.211946 -1.088500
v 32.569511 16.214354 -1.170859
v 32.474361 16.242077 -1.090201
vt 0.534215 0.272298
vt 0.534333 0.277597
vt 0.537556 0.212859
vt 0.540887 0.150921
vt 0.544222 0.089047
vt 0.544240 0.007691
vt 0.011970 0.746598
vt 0.011970 0.778698
vt 0.011970 0.738012
vt 0.038695 0.753911
vt 0.039664 0.784331
vt 0.011970 0.859227
vt 0.035787 0.746093
vt 0.039664 0.861647
vt 0.011970 0.919143
vt 0.039664 0.921738
vt 0.038391 0.940370
vt 0.034571 0.947275
vt 0.293423 0.480207
vt 0.312923 0.453975
vt 0.321597 0.462915
vt 0.297456 0.485983
vt 0.283492 0.459779
vt 0.303364 0.441344
vt 0.338927 0.469539
vt 0.309065 0.405998
vt 0.325879 0.412280
vt 0.273445 0.349081
vt 0.314845 0.354114
vt 0.339929 0.363275
vt 0.323554 0.316128
vt 0.330351 0.286012
vt 0.548380 0.003277
vt 0.549855 0.065490
vt 0.554338 0.129609
vt 0.558779 0.194371
vt 0.563339 0.260281
vt 0.196954 0.065558
vt 0.214284 0.005507
vt 0.225282 0.065558
vt 0.196954 0.152197
vt 0.224981 0.152197
vt 0.196954 0.207208
vt 0.223413 0.207208
vt 0.186666 0.072940
vt 0.163208 0.003027
vt 0.158338 0.072940
vt 0.186666 0.147310
vt 0.158461 0.147310
vt 0.186666 0.204858
vt 0.159639 0.204858
vt 0.186666 0.257733
vt 0.162548 0.257733
vt 0.186666 0.310607
vt 0.166457 0.310607
vt 0.186666 0.355928
vt 0.169963 0.355928
vt 0.186666 0.419802
vt 0.173743 0.419802
vt 0.186666 0.462384
vt 0.175383 0.462384
vt 0.186666 0.520213
vt 0.176124 0.520213
vt 0.186666 0.573417
vt 0.181185 0.573417
vt 0.186666 0.586072
vt 0.181185 0.586072
vt 0.305455 0.003841
vt 0.305455 0.085150
vt 0.308829 0.003841
vt 0.320089 0.085150
vt 0.305455 0.127857
vt 0.318316 0.127857
vt 0.228379 0.002250
vt 0.228379 0.075991
vt 0.233298 0.002250
vt 0.253516 0.075991
vt 0.228379 0.114539
vt 0.251832 0.114539
vt 0.339656 0.004059
vt 0.339656 0.077425
vt 0.341818 0.004059
vt 0.350293 0.077425
vt 0.339656 0.101476
vt 0.350198 0.101476
vt 0.339656 0.173466
vt 0.345136 0.173466
vt 0.869409 0.654299
vt 0.877567 0.627664
vt 0.903956 0.640979
vt 0.895296 0.659877
vt 0.891300 0.681999
vt 0.870285 0.678564
vt 0.873725 0.706194
vt 0.887576 0.709275
vt 0.879825 0.731803
vt 0.875067 0.722846
vt 0.870569 0.727939
vt 0.873380 0.735206
vt 0.863051 0.707001
vt 0.745460 0.670149
vt 0.764448 0.637718
vt 0.779047 0.659383
vt 0.760293 0.679821
vt 0.741933 0.699162
vt 0.737772 0.687742
vt 0.568616 0.408163
vt 0.977659 0.201586
vt 0.948184 0.163071
vt 0.598034 0.402181
vt 0.753548 0.199316
vt 0.941174 0.174918
vt 0.598327 0.422629
vt 0.580308 0.420495
vt 0.968173 0.240555
vt 0.960997 0.237243
vt 0.744995 0.242670
vt 0.712513 0.240686
vt 0.574224 0.430793
vt 0.594364 0.437052
vt 0.552486 0.422538
vt 0.930363 0.310850
vt 0.924944 0.304755
vt 0.736031 0.337062
vt 0.708073 0.334691
vt 0.896535 0.370747
vt 0.892469 0.362210
vt 0.728792 0.446784
vt 0.703141 0.439106
vt 0.872369 0.387152
vt 0.870340 0.378474
vt 0.831473 0.377606
vt 0.834490 0.370826
vt 0.323823 0.003979
vt 0.323823 0.058604
vt 0.326424 0.003979
vt 0.336167 0.058604
vt 0.323823 0.094278
vt 0.335176 0.094278
vt 0.283129 0.003676
vt 0.283129 0.066698
vt 0.286990 0.003676
vt 0.301297 0.066698
vt 0.283129 0.100986
vt 0.299547 0.100986
vt 0.463124 0.046984
vt 0.463124 0.002424
vt 0.450263 0.046984
vt 0.460523 0.002424
vt 0.426989 0.050456
vt 0.426989 0.003964
vt 0.407300 0.050456
vt 0.423128 0.003964
vt 0.257506 0.002562
vt 0.257506 0.075332
vt 0.262031 0.002562
vt 0.279321 0.075332
vt 0.257506 0.114677
vt 0.277195 0.114677
vt 0.478231 0.032460
vt 0.478231 0.002407
vt 0.466880 0.032460
vt 0.476071 0.002407
vt 0.444959 0.058606
vt 0.444959 0.003199
vt 0.428541 0.058606
vt 0.441584 0.003199
vt 0.405175 0.057295
vt 0.405175 0.004466
vt 0.381723 0.057295
vt 0.400650 0.004466
vt 0.377274 0.058013
vt 0.377274 0.005012
vt 0.350816 0.058013
vt 0.372356 0.005012
vt 0.362422 0.477817
vt 0.764236 0.203548
vt 0.416364 0.464929
vt 0.398206 0.450588
vt 0.770456 0.276994
vt 0.459858 0.423932
vt 0.823500 0.353536
vt 0.776858 0.352603
vt 0.549077 0.444726
vt 0.780647 0.397349
vt 0.524622 0.408687
vt 0.801024 0.414773
vt 0.782284 0.416676
vt 0.697514 0.981049
vt 0.782346 0.982026
vt 0.614718 0.980096
vt 0.697804 0.961543
vt 0.782746 0.962556
vt 0.860447 0.982925
vt 0.526301 0.979078
vt 0.614765 0.960591
vt 0.698136 0.949562
vt 0.783435 0.950978
vt 0.860820 0.963437
vt 0.424401 0.977904
vt 0.526087 0.959584
vt 0.614378 0.948422
vt 0.861441 0.952203
vt 0.329699 0.976814
vt 0.423997 0.958346
vt 0.524882 0.947369
vt 0.984257 0.793329
vt 0.263792 0.976055
vt 0.329241 0.957293
vt 0.422434 0.946120
vt 0.942105 0.832116
vt 0.958240 0.792565
vt 0.984697 0.755545
vt 0.217793 0.975526
vt 0.263617 0.956519
vt 0.943602 0.791220
vt 0.958857 0.754779
vt 0.985309 0.703003
vt 0.181878 0.975112
vt 0.218528 0.955792
vt 0.944166 0.753218
vt 0.959401 0.702322
vt 0.985950 0.648038
vt 0.184075 0.955348
vt 0.944246 0.700888
vt 0.959976 0.647459
vt 0.986475 0.603148
vt 0.152532 0.953318
vt 0.944206 0.646407
vt 0.960515 0.602510
vt 0.987210 0.540126
vt 0.140870 0.959214
vt 0.944235 0.601855
vt 0.961190 0.539535
vt 0.988491 0.430301
vt 0.133464 0.965600
vt 0.125218 0.947026
vt 0.123226 0.953138
vt 0.962286 0.430376
vt 0.989680 0.328384
vt 0.122183 0.965401
vt 0.961694 0.329330
vt 0.990208 0.283102
vt 0.110890 0.965353
vt 0.105117 0.958384
vt 0.957412 0.284422
vt 0.741842 0.940749
vt 0.656942 0.941648
vt 0.656670 0.921092
vt 0.741714 0.920268
vt 0.573972 0.942455
vt 0.573433 0.921898
vt 0.819165 0.919518
vt 0.819316 0.939866
vt 0.484397 0.943324
vt 0.483529 0.922769
vt 0.379454 0.944331
vt 0.378310 0.923789
vt 0.284189 0.945257
vt 0.283055 0.924712
vt 0.224050 0.945874
vt 0.223379 0.925290
vt 0.187328 0.946248
vt 0.187318 0.925639
vt 0.162809 0.946549
vt 0.163310 0.925870
vt 0.139650 0.948383
vt 0.148800 0.926004
vt 0.129750 0.943332
vt 0.141372 0.926066
vt 0.096947 0.956740
vt 0.095097 0.950550
vt 0.114119 0.936625
vt 0.095324 0.937457
vt 0.058906 0.945265
vt 0.073149 0.938890
vt 0.648554 0.318911
vt 0.652529 0.377138
vt 0.787142 0.670161
vt 0.622153 0.320152
vt 0.824074 0.664986
vt 0.804263 0.682768
vt 0.622153 0.264659
vt 0.648774 0.263059
vt 0.838313 0.686890
vt 0.822273 0.701310
vt 0.853403 0.711562
vt 0.843670 0.722332
vt 0.863374 0.726102
vt 0.864981 0.736310
vt 0.724457 0.690262
vt 0.724539 0.701746
vt 0.706891 0.697844
vt 0.710598 0.687686
vt 0.701509 0.672235
vt 0.688985 0.683437
vt 0.664690 0.671588
vt 0.676130 0.651005
vt 0.080533 0.768898
vt 0.072363 0.747157
vt 0.108233 0.757468
vt 0.109871 0.776596
vt 0.073162 0.740565
vt 0.108489 0.750714
vt 0.152312 0.767370
vt 0.143353 0.785488
vt 0.078242 0.828255
vt 0.102033 0.829764
vt 0.175189 0.775265
vt 0.167746 0.791943
vt 0.130654 0.831439
vt 0.086722 0.878840
vt 0.061123 0.877400
vt 0.199663 0.782304
vt 0.194187 0.798989
vt 0.155776 0.832983
vt 0.118549 0.878568
vt 0.082537 0.894980
vt 0.059656 0.891861
vt 0.236423 0.792773
vt 0.233865 0.809441
vt 0.186251 0.836916
vt 0.148360 0.874309
vt 0.111911 0.899773
vt 0.059638 0.897787
vt 0.079555 0.901102
vt 0.297757 0.805576
vt 0.297810 0.822227
vt 0.230972 0.845663
vt 0.183464 0.872055
vt 0.144890 0.891403
vt 0.395978 0.819712
vt 0.397004 0.836388
vt 0.299117 0.857722
vt 0.231164 0.877540
vt 0.182171 0.886944
vt 0.504864 0.829659
vt 0.506178 0.846293
vt 0.399812 0.871741
vt 0.300905 0.888356
vt 0.231000 0.891364
vt 0.598271 0.829848
vt 0.600133 0.846253
vt 0.509402 0.881553
vt 0.402210 0.902047
vt 0.301297 0.901787
vt 0.684361 0.821247
vt 0.686854 0.837211
vt 0.604290 0.880964
vt 0.512157 0.911775
vt 0.402853 0.915374
vt 0.771298 0.804833
vt 0.774331 0.820142
vt 0.692137 0.870867
vt 0.607848 0.910715
vt 0.849695 0.785631
vt 0.853496 0.800207
vt 0.780588 0.852158
vt 0.696665 0.899713
vt 0.860952 0.830537
vt 0.785955 0.879600
vt 0.356247 0.511729
vt 0.866913 0.856683
vt 0.839791 0.637133
vt 0.397185 0.538869
vt 0.846155 0.658143
vt 0.434348 0.515183
vt 0.437973 0.539393
vt 0.395553 0.579599
vt 0.853668 0.680630
vt 0.493503 0.515086
vt 0.492958 0.535990
vt 0.435561 0.580879
vt 0.390243 0.613537
vt 0.553723 0.502802
vt 0.549578 0.530857
vt 0.490337 0.578896
vt 0.430678 0.615247
vt 0.723572 0.640699
vt 0.595322 0.526350
vt 0.547334 0.575587
vt 0.486625 0.614917
vt 0.723649 0.668707
vt 0.644884 0.487084
vt 0.653942 0.513222
vt 0.593969 0.572931
vt 0.545034 0.613703
vt 0.742064 0.457198
vt 0.749264 0.482638
vt 0.656821 0.563144
vt 0.592791 0.612766
vt 0.823186 0.423776
vt 0.835903 0.451600
vt 0.762541 0.538873
vt 0.658787 0.606027
vt 0.859988 0.406317
vt 0.875409 0.435917
vt 0.859606 0.514995
vt 0.772088 0.587946
vt 0.659831 0.624527
vt 0.592594 0.630294
vt 0.903394 0.503718
vt 0.877069 0.570797
vt 0.775861 0.608447
vt 0.924395 0.563266
vt 0.883292 0.593947
vt 0.931453 0.588728
vt 0.490743 0.392579
vt 0.395712 0.390206
vt 0.417171 0.355607
vt 0.500922 0.442748
vt 0.357921 0.430573
vt 0.352136 0.325828
vt 0.427812 0.325766
vt 0.503281 0.360819
vt 0.360612 0.295904
vt 0.486917 0.002904
vt 0.505150 0.011369
vt 0.523570 0.019952
vt 0.508358 0.080820
vt 0.481899 0.084221
vt 0.514088 0.146069
vt 0.493161 0.147787
vt 0.523578 0.212405
vt 0.504798 0.211462
vt 0.521710 0.278571
vt 0.519898 0.273024
vt 0.013093 0.012712
vt 0.043490 0.009830
vt 0.102698 0.002992
vt 0.148951 0.056164
vt 0.037032 0.068947
vt 0.149323 0.145395
vt 0.065164 0.154367
vt 0.151936 0.212887
vt 0.060994 0.223345
vt 0.130150 0.291080
vt 0.053351 0.299791
vt 0.108364 0.369273
vt 0.045708 0.376236
vt 0.042112 0.260931
vt 0.021394 0.186069
vt 0.089690 0.436296
vt 0.039157 0.441761
vt 0.036761 0.334884
vt 0.019424 0.258927
vt 0.074715 0.523166
vt 0.034269 0.527579
vt 0.028316 0.407760
vt 0.011263 0.343343
vt 0.064732 0.581080
vt 0.031012 0.584792
vt 0.022866 0.483825
vt 0.002551 0.399588
vt 0.062663 0.652042
vt 0.038195 0.661036
vt 0.022391 0.547637
vt 0.007364 0.491967
vt 0.057438 0.719551
vt 0.048534 0.740735
vt 0.031024 0.636896
vt 0.005634 0.565611
vt 0.966303 0.202803
vt 0.714577 0.196994
vt 0.595741 0.498591
vt 0.395931 0.515548
vt 0.802311 0.643957
vt 0.622153 0.376407
vt 0.811520 0.399154
vt 0.569640 0.443770
vt 0.806381 0.268083
vt 0.790275 0.216605
vt 0.340476 0.500905
vt 0.587161 0.451728
vt 0.594285 0.381626
vt 0.542512 0.375825
vt 0.309035 0.491717
vt 0.272254 0.407269
vt 0.280615 0.307556
vt 0.288127 0.276712
vt 0.647295 0.472996
vt 0.276678 0.602888
vt 0.289160 0.504919
vt 0.651308 0.462590
vt 0.941784 0.897940
vt 0.283194 0.611595
vt 0.278719 0.610381
vt 0.295303 0.525605
vt 0.352025 0.575784
vt 0.293850 0.503059
vt 0.353684 0.535391
vt 0.955264 0.891311
vt 0.983784 0.833951
vt 0.983114 0.891365
vt 0.617478 0.402822
vt 0.648158 0.399850
vt 0.618567 0.461744
vt 0.346586 0.609945
vt 0.289931 0.571856
vt 0.956841 0.833305
vt 0.939096 0.893411
vt 0.910522 0.767783
vt 0.290935 0.526653
vt 0.286782 0.528753
vt 0.285508 0.570151
vt 0.282366 0.568663
vt 0.955880 0.895173
vt 0.916532 0.951480
vt 0.955716 0.901821
vt 0.983065 0.895618
vt 0.982992 0.902374
vt 0.618649 0.466164
vt 0.649338 0.467224
vt 0.618753 0.471682
vt 0.873507 0.918991
vt 0.873191 0.939821
vt 0.284558 0.508997
vt 0.916032 0.983565
vt 0.916548 0.962981
vt 0.930716 0.836555
vt 0.940441 0.905013
vt 0.924549 0.810956
vt 0.915492 0.781746
vt 0.011971 0.937259
vt 0.157327 0.974827
vt 0.531363 0.277649
vt 0.566310 0.260280
vt 0.531302 0.272349
vt 0.133428 0.974542
vt 0.565115 0.065487
vt 0.110858 0.974275
vt 0.529196 0.089309
vt 0.529907 0.151112
vt 0.530619 0.212980
vt 0.565509 0.129606
vt 0.565906 0.194369
vt 0.196954 0.065558
vt 0.011970 0.919143
vt 0.181878 0.975112
vt 0.146533 0.974703
vt 0.011971 0.944354
vt 0.099057 0.974141
vt 0.113931 0.926257
vt 0.141372 0.926066
vt 0.071711 0.926465
vt 0.047731 0.926248
vt 0.011970 0.738012
vt 0.196954 0.002170
vt 0.186666 0.013945
vt 0.564762 0.007934
vt 0.528208 0.003473
vt 0.186666 0.072940
vt 0.564773 0.009773
vt 0.528269 0.008763
vt 0.080533 0.768898
vt 0.072363 0.747157
vt 0.108233 0.757468
vt 0.109871 0.776596
vt 0.534215 0.272298
vt 0.534333 0.277597
vt 0.531363 0.277649
vt 0.531302 0.272349
vt 0.338927 0.469539
vt 0.362422 0.477817
vt 0.340476 0.500905
vt 0.309035 0.491717
vt 0.774331 0.820142
vt 0.853496 0.800207
vt 0.860952 0.830537
vt 0.780588 0.852158
vt 0.741842 0.940749
vt 0.656942 0.941648
vt 0.656670 0.921092
vt 0.741714 0.920268
vt 0.600133 0.846253
vt 0.686854 0.837211
vt 0.692137 0.870867
vt 0.604290 0.880964
vt 0.573972 0.942455
vt 0.484397 0.943324
vt 0.483529 0.922769
vt 0.573433 0.921898
vt 0.492958 0.535990
vt 0.549578 0.530857
vt 0.547334 0.575587
vt 0.490337 0.578896
vt 0.648554 0.318911
vt 0.652529 0.377138
vt 0.622153 0.376407
vt 0.622153 0.320152
vt 0.397004 0.836388
vt 0.506178 0.846293
vt 0.509402 0.881553
vt 0.399812 0.871741
vt 0.379454 0.944331
vt 0.284189 0.945257
vt 0.283055 0.924712
vt 0.378310 0.923789
vt 0.873507 0.918991
vt 0.873191 0.939821
vt 0.819316 0.939866
vt 0.819165 0.919518
vt 0.742064 0.457198
vt 0.823186 0.423776
vt 0.835903 0.451600
vt 0.749264 0.482638
vt 0.736031 0.337062
vt 0.728792 0.446784
vt 0.703141 0.439106
vt 0.708073 0.334691
vt 0.595322 0.526350
vt 0.653942 0.513222
vt 0.656821 0.563144
vt 0.593969 0.572931
vt 0.724457 0.690262
vt 0.737772 0.687742
vt 0.741933 0.699162
vt 0.724539 0.701746
vt 0.397185 0.538869
vt 0.437973 0.539393
vt 0.435561 0.580879
vt 0.395553 0.579599
vt 0.870569 0.727939
vt 0.875067 0.722846
vt 0.879825 0.731803
vt 0.873380 0.735206
vt 0.574224 0.430793
vt 0.580308 0.420495
vt 0.598327 0.422629
vt 0.594364 0.437052
vt 0.490743 0.392579
vt 0.459858 0.423932
vt 0.395712 0.390206
vt 0.417171 0.355607
vt 0.806381 0.268083
vt 0.823500 0.353536
vt 0.776858 0.352603
vt 0.770456 0.276994
vt 0.398206 0.450588
vt 0.321597 0.462915
vt 0.357921 0.430573
vt 0.293423 0.480207
vt 0.312923 0.453975
vt 0.297456 0.485983
vt 0.309065 0.405998
vt 0.314845 0.354114
vt 0.339929 0.363275
vt 0.325879 0.412280
vt 0.323554 0.316128
vt 0.330351 0.286012
vt 0.360612 0.295904
vt 0.352136 0.325828
vt 0.775861 0.608447
vt 0.659831 0.624527
vt 0.658787 0.606027
vt 0.772088 0.587946
vt 0.960515 0.602510
vt 0.959976 0.647459
vt 0.944206 0.646407
vt 0.944235 0.601855
vt 0.959401 0.702322
vt 0.958857 0.754779
vt 0.944166 0.753218
vt 0.944246 0.700888
vt 0.958240 0.792565
vt 0.956841 0.833305
vt 0.942105 0.832116
vt 0.943602 0.791220
vt 0.916532 0.951480
vt 0.916548 0.962981
vt 0.860820 0.963437
vt 0.861441 0.952203
vt 0.782746 0.962556
vt 0.697804 0.961543
vt 0.698136 0.949562
vt 0.783435 0.950978
vt 0.614765 0.960591
vt 0.526087 0.959584
vt 0.524882 0.947369
vt 0.614378 0.948422
vt 0.402853 0.915374
vt 0.301297 0.901787
vt 0.300905 0.888356
vt 0.402210 0.902047
vt 0.086722 0.878840
vt 0.061123 0.877400
vt 0.078242 0.828255
vt 0.102033 0.829764
vt 0.194187 0.798989
vt 0.233865 0.809441
vt 0.230972 0.845663
vt 0.186251 0.836916
vt 0.231000 0.891364
vt 0.182171 0.886944
vt 0.183464 0.872055
vt 0.231164 0.877540
vt 0.224050 0.945874
vt 0.187328 0.946248
vt 0.187318 0.925639
vt 0.223379 0.925290
vt 0.130654 0.831439
vt 0.143353 0.785488
vt 0.167746 0.791943
vt 0.155776 0.832983
vt 0.162809 0.946549
vt 0.139650 0.948383
vt 0.148800 0.926004
vt 0.163310 0.925870
vt 0.144890 0.891403
vt 0.111911 0.899773
vt 0.118549 0.878568
vt 0.148360 0.874309
vt 0.486917 0.002904
vt 0.505150 0.011369
vt 0.481899 0.084221
vt 0.508358 0.080820
vt 0.523570 0.019952
vt 0.548380 0.003277
vt 0.564762 0.007934
vt 0.564773 0.009773
vt 0.549855 0.065490
vt 0.565115 0.065487
vt 0.013093 0.012712
vt 0.043490 0.009830
vt 0.037032 0.068947
vt 0.148951 0.056164
vt 0.102698 0.002992
vt 0.065164 0.154367
vt 0.149323 0.145395
vt 0.151936 0.212887
vt 0.060994 0.223345
vt 0.039157 0.441761
vt 0.089690 0.436296
vt 0.074715 0.523166
vt 0.034269 0.527579
vt 0.130150 0.291080
vt 0.053351 0.299791
vt 0.031012 0.584792
vt 0.064732 0.581080
vt 0.062663 0.652042
vt 0.038195 0.661036
vt 0.869409 0.654299
vt 0.877567 0.627664
vt 0.903956 0.640979
vt 0.895296 0.659877
vt 0.824074 0.664986
vt 0.802311 0.643957
vt 0.839791 0.637133
vt 0.846155 0.658143
vt 0.745460 0.670149
vt 0.764448 0.637718
vt 0.779047 0.659383
vt 0.760293 0.679821
vt 0.701509 0.672235
vt 0.676130 0.651005
vt 0.723572 0.640699
vt 0.723649 0.668707
vt 0.873725 0.706194
vt 0.870285 0.678564
vt 0.891300 0.681999
vt 0.887576 0.709275
vt 0.853403 0.711562
vt 0.838313 0.686890
vt 0.853668 0.680630
vt 0.863051 0.707001
vt 0.568616 0.408163
vt 0.542512 0.375825
vt 0.594285 0.381626
vt 0.598034 0.402181
vt 0.549077 0.444726
vt 0.500922 0.442748
vt 0.524622 0.408687
vt 0.552486 0.422538
vt 0.554338 0.129609
vt 0.565509 0.129606
vt 0.565906 0.194369
vt 0.558779 0.194371
vt 0.493161 0.147787
vt 0.514088 0.146069
vt 0.523578 0.212405
vt 0.504798 0.211462
vt 0.566310 0.260280
vt 0.563339 0.260281
vt 0.521710 0.278571
vt 0.519898 0.273024
vt 0.960997 0.237243
vt 0.968173 0.240555
vt 0.930363 0.310850
vt 0.924944 0.304755
vt 0.931453 0.588728
vt 0.883292 0.593947
vt 0.877069 0.570797
vt 0.924395 0.563266
vt 0.753548 0.199316
vt 0.744995 0.242670
vt 0.712513 0.240686
vt 0.714577 0.196994
vt 0.045708 0.376236
vt 0.108364 0.369273
vt 0.022391 0.547637
vt 0.007364 0.491967
vt 0.028316 0.407760
vt 0.011263 0.343343
vt 0.057438 0.719551
vt 0.048534 0.740735
vt 0.031024 0.636896
vt 0.005634 0.565611
vt 0.022866 0.483825
vt 0.002551 0.399588
vt 0.036761 0.334884
vt 0.019424 0.258927
vt 0.042112 0.260931
vt 0.021394 0.186069
vt 0.059638 0.897787
vt 0.059656 0.891861
vt 0.082537 0.894980
vt 0.079555 0.901102
vt 0.140870 0.959214
vt 0.152532 0.953318
vt 0.157327 0.974827
vt 0.146533 0.974703
vt 0.129750 0.943332
vt 0.096947 0.956740
vt 0.095097 0.950550
vt 0.035787 0.746093
vt 0.038695 0.753911
vt 0.011970 0.746598
vt 0.011970 0.738012
vt 0.011970 0.738012
vt 0.152312 0.767370
vt 0.039664 0.784331
vt 0.011970 0.778698
vt 0.039664 0.861647
vt 0.011970 0.859227
vt 0.684361 0.821247
vt 0.771298 0.804833
vt 0.849695 0.785631
vt 0.697514 0.981049
vt 0.782346 0.982026
vt 0.860447 0.982925
vt 0.504864 0.829659
vt 0.598271 0.829848
vt 0.526301 0.979078
vt 0.614718 0.980096
vt 0.434348 0.515183
vt 0.493503 0.515086
vt 0.553723 0.502802
vt 0.984697 0.755545
vt 0.985309 0.703003
vt 0.985950 0.648038
vt 0.622153 0.264659
vt 0.648774 0.263059
vt 0.299117 0.857722
vt 0.297810 0.822227
vt 0.297757 0.805576
vt 0.395978 0.819712
vt 0.329699 0.976814
vt 0.329241 0.957293
vt 0.423997 0.958346
vt 0.424401 0.977904
vt 0.915492 0.781746
vt 0.924549 0.810956
vt 0.910522 0.767783
vt 0.916032 0.983565
vt 0.859606 0.514995
vt 0.762541 0.538873
vt 0.644884 0.487084
vt 0.987210 0.540126
vt 0.961190 0.539535
vt 0.962286 0.430376
vt 0.988491 0.430301
vt 0.961694 0.329330
vt 0.989680 0.328384
vt 0.595741 0.498591
vt 0.986475 0.603148
vt 0.706891 0.697844
vt 0.710598 0.687686
vt 0.352025 0.575784
vt 0.353684 0.535391
vt 0.356247 0.511729
vt 0.395931 0.515548
vt 0.983784 0.833951
vt 0.984257 0.793329
vt 0.864981 0.736310
vt 0.863374 0.726102
vt 0.587161 0.451728
vt 0.569640 0.443770
vt 0.288127 0.276712
vt 0.280615 0.307556
vt 0.273445 0.349081
vt 0.427812 0.325766
vt 0.503281 0.360819
vt 0.764236 0.203548
vt 0.790275 0.216605
vt 0.272254 0.407269
vt 0.303364 0.441344
vt 0.283492 0.459779
vt 0.416364 0.464929
vt 0.039664 0.921738
vt 0.011970 0.919143
vt 0.011970 0.919143
vt 0.038391 0.940370
vt 0.011971 0.937259
vt 0.592791 0.612766
vt 0.545034 0.613703
vt 0.592594 0.630294
vt 0.486625 0.614917
vt 0.430678 0.615247
vt 0.390243 0.613537
vt 0.346586 0.609945
vt 0.930716 0.836555
vt 0.866913 0.856683
vt 0.785955 0.879600
vt 0.696665 0.899713
vt 0.607848 0.910715
vt 0.512157 0.911775
vt 0.422434 0.946120
vt 0.199663 0.782304
vt 0.236423 0.792773
vt 0.217793 0.975526
vt 0.218528 0.955792
vt 0.263617 0.956519
vt 0.263792 0.976055
vt 0.175189 0.775265
vt 0.184075 0.955348
vt 0.181878 0.975112
vt 0.181878 0.975112
vt 0.787142 0.670161
vt 0.804263 0.682768
vt 0.822273 0.701310
vt 0.664690 0.671588
vt 0.688985 0.683437
vt 0.843670 0.722332
vt 0.811520 0.399154
vt 0.780647 0.397349
vt 0.801024 0.414773
vt 0.782284 0.416676
vt 0.875409 0.435917
vt 0.903394 0.503718
vt 0.859988 0.406317
vt 0.966303 0.202803
vt 0.977659 0.201586
vt 0.896535 0.370747
vt 0.892469 0.362210
vt 0.872369 0.387152
vt 0.870340 0.378474
vt 0.957412 0.284422
vt 0.990208 0.283102
vt 0.831473 0.377606
vt 0.834490 0.370826
vt 0.948184 0.163071
vt 0.941174 0.174918
vt 0.125218 0.947026
vt 0.123226 0.953138
vt 0.133464 0.965600
vt 0.122183 0.965401
vt 0.110890 0.965353
vt 0.105117 0.958384
vt 0.110858 0.974275
vt 0.099057 0.974141
vt 0.141372 0.926066
vt 0.141372 0.926066
vt 0.114119 0.936625
vt 0.113931 0.926257
vt 0.073162 0.740565
vt 0.108489 0.750714
vt 0.058906 0.945265
vt 0.073149 0.938890
vt 0.095324 0.937457
vt 0.196954 0.152197
vt 0.196954 0.065558
vt 0.196954 0.065558
vt 0.225282 0.065558
vt 0.224981 0.152197
vt 0.196954 0.207208
vt 0.223413 0.207208
vt 0.377274 0.005012
vt 0.377274 0.058013
vt 0.350816 0.058013
vt 0.372356 0.005012
vt 0.228379 0.075991
vt 0.228379 0.002250
vt 0.233298 0.002250
vt 0.253516 0.075991
vt 0.251832 0.114539
vt 0.228379 0.114539
vt 0.405175 0.004466
vt 0.405175 0.057295
vt 0.381723 0.057295
vt 0.400650 0.004466
vt 0.257506 0.075332
vt 0.257506 0.002562
vt 0.262031 0.002562
vt 0.279321 0.075332
vt 0.277195 0.114677
vt 0.257506 0.114677
vt 0.426989 0.003964
vt 0.426989 0.050456
vt 0.407300 0.050456
vt 0.423128 0.003964
vt 0.283129 0.066698
vt 0.283129 0.003676
vt 0.286990 0.003676
vt 0.301297 0.066698
vt 0.299547 0.100986
vt 0.283129 0.100986
vt 0.444959 0.003199
vt 0.444959 0.058606
vt 0.428541 0.058606
vt 0.441584 0.003199
vt 0.305455 0.085150
vt 0.305455 0.003841
vt 0.308829 0.003841
vt 0.320089 0.085150
vt 0.318316 0.127857
vt 0.305455 0.127857
vt 0.463124 0.002424
vt 0.463124 0.046984
vt 0.450263 0.046984
vt 0.460523 0.002424
vt 0.323823 0.058604
vt 0.323823 0.003979
vt 0.326424 0.003979
vt 0.336167 0.058604
vt 0.335176 0.094278
vt 0.323823 0.094278
vt 0.478231 0.002407
vt 0.478231 0.032460
vt 0.466880 0.032460
vt 0.476071 0.002407
vt 0.339656 0.077425
vt 0.339656 0.004059
vt 0.341818 0.004059
vt 0.350293 0.077425
vt 0.350198 0.101476
vt 0.339656 0.101476
vt 0.339656 0.173466
vt 0.345136 0.173466
vt 0.186666 0.573417
vt 0.186666 0.586072
vt 0.181185 0.586072
vt 0.181185 0.573417
vt 0.176124 0.520213
vt 0.186666 0.520213
vt 0.175383 0.462384
vt 0.186666 0.462384
vt 0.173743 0.419802
vt 0.186666 0.419802
vt 0.169963 0.355928
vt 0.186666 0.355928
vt 0.166457 0.310607
vt 0.186666 0.310607
vt 0.162548 0.257733
vt 0.186666 0.257733
vt 0.159639 0.204858
vt 0.186666 0.204858
vt 0.158461 0.147310
vt 0.186666 0.147310
vt 0.158338 0.072940
vt 0.186666 0.072940
vt 0.186666 0.072940
vt 0.163208 0.003027
vt 0.186666 0.013945
vt 0.295303 0.525605
vt 0.290935 0.526653
vt 0.289160 0.504919
vt 0.293850 0.503059
vt 0.289931 0.571856
vt 0.285508 0.570151
vt 0.651308 0.462590
vt 0.649338 0.467224
vt 0.618649 0.466164
vt 0.618567 0.461744
vt 0.983114 0.891365
vt 0.983065 0.895618
vt 0.955880 0.895173
vt 0.955264 0.891311
vt 0.941784 0.897940
vt 0.939096 0.893411
vt 0.283194 0.611595
vt 0.278719 0.610381
vt 0.617478 0.402822
vt 0.648158 0.399850
vt 0.286782 0.528753
vt 0.284558 0.508997
vt 0.282366 0.568663
vt 0.276678 0.602888
vt 0.955716 0.901821
vt 0.940441 0.905013
vt 0.982992 0.902374
vt 0.647295 0.472996
vt 0.618753 0.471682
vt 0.529196 0.089309
vt 0.528269 0.008763
vt 0.544222 0.089047
vt 0.528208 0.003473
vt 0.544240 0.007691
vt 0.196954 0.002170
vt 0.214284 0.005507
vt 0.530619 0.212980
vt 0.529907 0.151112
vt 0.540887 0.150921
vt 0.537556 0.212859
vt 0.133428 0.974542
vt 0.011971 0.944354
vt 0.034571 0.947275
vt 0.047731 0.926248
vt 0.071711 0.926465
vn -0.587754 0.192838 0.785722
vn -0.579121 0.241592 0.778622
vn -0.075351 -0.177989 0.981143
vn -0.105415 -0.008573 0.994391
vn -0.174494 0.263999 0.948608
vn 0.805325 -0.432934 0.404994
vn 0.866657 -0.498904 0.000000
vn -0.687009 0.726649 -0.000003
vn 0.109281 -0.684663 0.720620
vn -0.062957 -0.971374 0.229060
vn -0.063599 -0.997976 0.000000
vn 0.094202 -0.995553 0.000000
vn -0.067248 -0.125654 0.989792
vn -0.076231 -0.126927 0.988979
vn 0.000000 0.000000 1.000000
vn 0.000000 0.000000 1.000000
vn -0.387723 -0.729913 0.562937
vn -0.330409 -0.744570 0.580039
vn -0.404641 -0.914476 -0.000000
vn -0.468079 -0.883687 0.000000
vn -0.041451 -0.124184 0.991393
vn -0.055225 -0.123419 0.990817
vn 0.000000 0.000000 1.000000
vn 0.000000 0.000000 1.000000
vn -0.252313 -0.766217 0.590973
vn -0.174496 -0.786217 0.592802
vn -0.215708 -0.976458 -0.000000
vn -0.311781 -0.950154 -0.000000
vn -0.090682 -0.113654 0.989373
vn -0.101291 -0.105119 0.989288
vn -0.012249 -0.021322 0.999698
vn -0.005615 -0.012456 0.999907
vn -0.539421 -0.566046 0.623391
vn -0.275978 -0.614659 0.738939
vn -0.398096 -0.917344 -0.000000
vn -0.703814 -0.710385 0.000000
vn -0.020777 -0.133582 0.990820
vn -0.028875 -0.127238 0.991452
vn 0.000000 0.000000 1.000000
vn 0.000000 0.000000 1.000000
vn -0.121658 -0.801067 0.586081
vn -0.078988 -0.807066 0.585155
vn -0.095983 -0.995383 -0.000000
vn -0.149408 -0.988776 -0.000000
vn -0.601409 -0.798941 0.000000
vn -0.521315 -0.653982 0.548215
vn -0.428395 -0.717990 0.548606
vn -0.511490 -0.859289 0.000000
vn -0.629532 -0.345322 0.696019
vn -0.660619 -0.270219 0.700403
vn -0.137813 0.015625 0.990335
vn -0.126806 -0.052737 0.990525
vn -0.454790 -0.399393 0.796023
vn -0.761711 -0.647917 -0.000000
vn -0.871045 -0.491203 0.000000
vn -0.086364 -0.089733 0.992214
vn -0.115670 -0.081517 0.989937
vn -0.025143 -0.017351 0.999533
vn -0.021567 -0.024847 0.999459
vn -0.392601 -0.511972 0.764035
vn -0.720946 -0.103774 0.685178
vn -0.888786 -0.115799 0.443452
vn -0.548968 -0.732608 0.402392
vn -0.030886 -0.047550 0.998391
vn -0.049975 -0.093819 0.994334
vn -0.001175 -0.005594 0.999984
vn 0.000172 -0.001141 0.999999
vn -0.471266 -0.441161 0.763731
vn -0.780498 0.308813 0.543560
vn -0.939581 0.342328 0.000000
vn -0.660775 -0.619763 0.423404
vn -0.720493 -0.516910 0.462270
vn -0.933912 -0.003194 0.357488
vn -0.998226 0.059535 0.000000
vn -0.789400 -0.613880 0.000000
vn -0.057996 -0.046204 0.997247
vn 0.002241 -0.240595 0.970623
vn 0.050175 -0.084959 0.995120
vn -0.000129 0.000990 1.000000
vn -0.086983 -0.906580 0.412974
vn -0.113298 -0.817114 0.565233
vn -0.099999 -0.994988 0.000000
vn -0.108683 -0.994077 -0.000000
vn 0.045182 -0.350778 0.935368
vn 0.273983 -0.490031 0.827528
vn 0.108320 -0.187722 0.976231
vn 0.966822 -0.255452 -0.000000
vn 0.592387 -0.230919 0.771851
vn 0.457537 -0.802674 0.382589
vn 0.921066 0.113615 0.372465
vn 0.869392 0.214593 0.445092
vn 0.213727 -0.019130 0.976706
vn 0.301272 -0.098131 0.948475
vn 0.782337 0.354089 0.512416
vn 0.647455 0.570100 0.505756
vn 0.013888 0.275958 0.961069
vn 0.134519 0.067320 0.988622
vn 0.610952 0.566970 0.552524
vn 0.620274 0.596076 0.509856
vn 0.116300 0.109090 0.987205
vn 0.096944 0.101623 0.990088
vn 0.591018 0.652976 0.473624
vn 0.565479 0.685475 0.458647
vn 0.111963 0.133876 0.984653
vn 0.118321 0.128067 0.984682
vn 0.566708 0.696810 0.439658
vn 0.552988 0.717392 0.423737
vn 0.121139 0.155296 0.980412
vn 0.118060 0.143195 0.982628
vn 0.520041 0.742691 0.421862
vn 0.586752 0.690435 0.423109
vn 0.165182 0.112982 0.979770
vn 0.111679 0.158929 0.980953
vn 0.041784 0.178917 0.982977
vn 0.403100 0.802977 0.439019
vn 0.486432 0.757042 0.436200
vn 0.100186 0.156372 0.982604
vn 0.451455 0.772303 0.446919
vn 0.387942 0.799945 0.457809
vn 0.077912 0.161287 0.983827
vn 0.091694 0.157398 0.983269
vn 0.294913 0.834088 0.466179
vn 0.199999 0.860682 0.468216
vn 0.038799 0.170357 0.984618
vn 0.058121 0.165972 0.984416
vn 0.138405 0.870239 0.472787
vn 0.111192 0.869290 0.481635
vn 0.020038 0.160651 0.986808
vn 0.025998 0.166822 0.985644
vn -0.123101 0.033429 0.991831
vn -0.696091 -0.000666 0.717953
vn -0.627481 0.058210 0.776453
vn -0.122783 0.010045 0.992383
vn 0.000321 -0.118059 0.993007
vn -0.004971 -0.126999 0.991890
vn 0.000000 0.000000 1.000000
vn 0.000000 0.000000 1.000000
vn 0.122390 0.855842 0.502549
vn 0.224045 0.807649 0.545441
vn 0.033305 0.133113 0.990541
vn 0.020815 0.152059 0.988152
vn -0.024564 -0.798729 0.601190
vn 0.010852 -0.785349 0.618958
vn 0.017717 -0.999843 -0.000000
vn -0.027883 -0.999611 -0.000000
vn 0.000000 0.000000 1.000000
vn 0.015131 -0.065601 0.997731
vn 0.008603 -0.100563 0.994893
vn 0.000000 0.000000 1.000000
vn 0.039968 -0.752850 0.656978
vn 0.079392 -0.533847 0.841846
vn 0.100740 -0.994913 -0.000000
vn 0.044731 -0.998999 0.000000
vn 0.364829 0.717678 0.593159
vn 0.340743 0.580311 0.739684
vn 0.048192 0.077699 0.995812
vn 0.053141 0.115079 0.991934
vn -0.632631 0.361195 0.685067
vn -0.099403 0.120120 0.987770
vn -0.381796 0.392664 0.836688
vn 0.435566 -0.137027 0.889666
vn 0.589333 -0.183784 0.786708
vn 0.804853 -0.260948 0.533027
vn 0.954737 -0.297452 0.000000
vn 0.883723 -0.468010 -0.000000
vn 0.862228 -0.209845 0.461008
vn 0.050998 0.054485 0.997211
vn 0.327233 -0.065562 0.942667
vn -0.357195 0.036895 0.933301
vn -0.395218 0.250067 0.883894
vn 0.255466 -0.014634 0.966707
vn -0.275581 -0.041484 0.960382
vn -0.313571 -0.110096 0.943161
vn 0.133649 0.046714 0.989927
vn 0.076920 -0.002377 0.997034
vn -0.289190 -0.155233 0.944601
vn -0.289123 -0.129204 0.948533
vn 0.083281 -0.004340 0.996517
vn -0.274957 -0.161018 0.947878
vn 0.085812 -0.004184 0.996303
vn 0.130092 0.009275 0.991459
vn -0.308695 -0.092774 0.946626
vn -0.344116 -0.087045 0.934884
vn 0.241706 -0.046229 0.969248
vn -0.725622 0.065627 0.684956
vn -0.442706 -0.538370 0.717056
vn -0.663843 -0.747872 -0.000000
vn -0.987162 0.159720 0.000000
vn 0.201582 -0.725821 0.657684
vn -0.120461 -0.170319 0.977998
vn -0.159554 -0.212517 0.964043
vn -0.638493 -0.027120 0.769150
vn -0.555895 -0.332991 0.761641
vn -0.926341 -0.376686 0.000000
vn -0.984631 0.174646 -0.000000
vn -0.103132 -0.596552 0.795920
vn -0.193999 -0.197399 0.960936
vn -0.229909 -0.260222 0.937777
vn -0.733242 0.379501 0.564212
vn -0.720145 0.339719 0.604965
vn -0.859305 0.511463 -0.000000
vn -0.829018 0.559221 -0.000000
vn 0.285953 -0.791382 0.540320
vn 0.343277 -0.746426 0.570096
vn -0.179187 -0.204121 0.962407
vn -0.247599 -0.233347 0.940342
vn -0.782594 0.291580 0.550026
vn -0.536166 0.316272 0.782623
vn -0.782138 0.623105 -0.000000
vn -0.850459 0.526042 -0.000000
vn -0.184905 -0.864357 0.467651
vn -0.248098 -0.175755 0.952658
vn -0.431242 -0.278749 0.858096
vn 0.383706 -0.237586 0.892369
vn 0.778080 -0.628166 0.000001
vn 0.795757 -0.605617 0.000001
vn 0.394676 -0.232175 0.889003
vn -0.300638 0.352754 0.886104
vn -0.272408 0.339719 0.900214
vn -0.234447 0.253259 0.938560
vn -0.177297 0.217162 0.959899
vn -0.127718 0.222846 0.966451
vn -0.149032 0.258178 0.954533
vn 0.413451 0.752273 0.512975
vn 0.584387 0.585248 0.562118
vn 0.064860 0.145009 0.987302
vn -0.067136 0.363621 0.929125
vn -0.759081 0.120989 0.639655
vn -0.859899 -0.401137 0.315696
vn -0.999276 -0.038039 -0.000000
vn 0.097509 -0.001682 0.995233
vn -0.278904 -0.170498 0.945063
vn 0.568014 0.013481 0.822909
vn 0.538092 0.514384 0.667732
vn 0.580686 0.016333 0.813963
vn 0.558883 0.522295 0.644094
vn -0.321195 -0.145656 0.935745
vn 0.776945 -0.130912 0.615807
vn 0.588682 -0.043957 0.807169
vn 0.788339 0.152803 0.595964
vn 0.504393 0.007810 0.863439
vn 0.558713 0.401725 0.725574
vn 0.667966 0.038625 0.743189
vn 0.639756 0.540111 0.546802
vn 0.656078 0.027818 0.754180
vn 0.637292 0.539169 0.550595
vn -0.262808 0.880115 0.395386
vn -0.592579 0.274801 0.757189
vn -0.022610 0.272506 0.961889
vn 0.082139 0.870264 0.485688
vn 0.289428 0.893213 0.344097
vn 0.519644 0.854383 -0.000000
vn 0.372808 0.927909 -0.000000
vn 0.067878 -0.941300 0.330676
vn -0.008047 -0.885317 0.464919
vn -0.321347 -0.728825 0.604608
vn -0.792478 0.415105 0.446841
vn -0.846793 -0.072308 0.526985
vn -0.305402 -0.819942 0.484174
vn -0.853154 0.345708 0.390658
vn -0.925851 0.088459 0.367390
vn 0.436878 0.899521 -0.000000
vn 0.505255 0.862970 0.000000
vn 0.541063 0.840982 0.000000
vn 0.226941 0.973909 0.000000
vn 0.333910 0.942605 0.000000
vn 0.609394 0.792868 0.000001
vn 0.629362 0.777112 0.000000
vn 0.634630 0.772816 -0.000000
vn 0.000000 0.000000 1.000000
vn -0.013979 -0.135516 0.990677
vn 0.127590 0.991827 0.000000
vn 0.157490 0.987521 0.000000
vn -0.129145 -0.091319 0.987412
vn -0.036394 0.022725 0.999079
vn 0.469787 0.882780 0.000000
vn -0.044523 0.058045 0.997321
vn -0.025518 0.001991 0.999672
vn 0.718587 0.695437 0.000000
vn 0.733453 0.679740 0.000000
vn 0.722862 0.690992 0.000000
vn 0.669007 0.743256 -0.000000
vn 0.020301 -0.914332 0.404456
vn -0.004386 -0.739552 0.673085
vn 0.050452 -0.032296 0.998204
vn -0.008245 -0.109194 0.993986
vn 0.635925 0.771751 -0.000000
vn 0.573377 0.819292 0.000000
vn 0.170665 -0.985329 -0.000000
vn 0.176193 -0.839551 0.513917
vn -0.384826 -0.922989 -0.000000
vn -0.428238 -0.856633 0.287735
vn 0.781085 0.624425 -0.000000
vn 0.914094 0.405502 -0.000000
vn 0.969025 0.246965 -0.000000
vn 0.990980 0.134008 -0.000000
vn 0.971245 0.064536 0.229170
vn 0.997127 0.075749 -0.000000
vn -0.931779 0.080552 0.353976
vn -0.936698 -0.070764 0.342912
vn -0.886313 0.304283 0.349086
vn 0.275722 0.961238 -0.000000
vn 0.143902 0.989592 0.000000
vn 0.391316 0.920257 -0.000000
vn 0.455561 0.884717 -0.098691
vn 0.320624 -0.947207 -0.000000
vn 0.488292 -0.872680 -0.000000
vn -0.037110 -0.952856 0.301144
vn 0.436100 -0.899898 -0.000000
vn -0.080235 -0.996776 0.000000
vn 0.586570 0.809899 0.000000
vn 0.084439 0.996267 -0.017927
vn 0.111262 0.993634 0.017658
vn 0.060390 0.997346 0.040663
vn 0.005914 0.999983 0.000000
vn -0.453322 0.891347 0.000000
vn 0.084170 -0.995016 -0.053468
vn 0.172001 -0.985097 -0.000000
vn 0.012418 -0.999709 -0.020701
vn -0.003504 -0.999994 0.000000
vn -0.042614 -0.980662 0.191013
vn 0.024491 -0.999699 -0.001154
vn 0.999786 -0.020688 0.000000
vn 0.983536 -0.180711 0.000000
vn 0.974114 -0.226056 0.000000
vn 0.794375 0.607427 0.000000
vn 0.791629 0.611002 0.000000
vn 0.990379 -0.138379 0.000000
vn 0.806608 0.591087 0.000000
vn 0.791336 0.611382 0.000000
vn 0.996580 -0.082640 0.000000
vn 0.840076 0.542468 0.000000
vn 0.744650 0.667455 0.000000
vn 0.989489 -0.144607 0.000000
vn 0.594668 0.803971 0.000000
vn 0.813613 0.581407 0.000000
vn 0.994139 -0.108111 0.000000
vn 0.957592 0.288128 0.000000
vn 0.742465 0.669885 0.000000
vn 0.994071 -0.108733 0.000000
vn 0.937277 0.348586 0.000000
vn 0.986581 0.163275 0.000000
vn 0.982614 -0.185661 0.000000
vn 0.999228 -0.039280 0.000000
vn 0.993914 -0.110162 0.000000
vn -0.962811 -0.270177 0.000000
vn -0.982863 -0.184338 0.000000
vn -0.972899 -0.231230 0.000000
vn -0.953200 -0.302342 0.000000
vn -0.936868 -0.349684 0.000000
vn -0.917849 -0.396929 0.000000
vn -0.917849 -0.396931 0.000000
vn -0.966051 -0.258350 0.000000
vn -0.993094 -0.117324 0.000000
vn -0.995714 0.092491 0.000000
vn -0.991264 -0.131890 0.000000
vn -0.831573 0.384906 0.400416
vn -0.031839 -0.149592 0.988235
vn -0.729297 0.424114 0.536892
vn -0.943999 0.223803 0.242441
vn -0.416536 -0.734380 0.535896
vn 0.043154 -0.028429 0.998664
vn -0.728055 0.448742 0.518235
vn -0.977876 0.209186 -0.000000
vn -0.512914 -0.858440 -0.000000
vn 0.640519 0.767942 -0.000000
vn -0.605597 0.795772 -0.000000
vn -0.592146 0.786833 0.173945
vn 0.597831 0.688700 0.410232
vn -0.691002 0.514730 0.507513
vn 0.176399 0.141629 0.974076
vn -0.770606 0.637313 -0.000000
vn -0.868028 0.496516 -0.000000
vn -0.762979 0.431004 0.481766
vn 0.951998 -0.306104 0.000000
vn -0.717396 0.696666 -0.000001
vn -0.734093 0.679049 -0.000000
vn 0.050626 0.998718 -0.000000
vn -0.134941 -0.900524 0.413338
vn -0.587754 0.192838 -0.785722
vn -0.105415 -0.008574 -0.994391
vn -0.075351 -0.177989 -0.981143
vn -0.579121 0.241592 -0.778622
vn -0.174493 0.263998 -0.948608
vn 0.805325 -0.432934 -0.404994
vn 0.109281 -0.684663 -0.720620
vn -0.062957 -0.971374 -0.229059
vn -0.067248 -0.125654 -0.989792
vn 0.000000 0.000000 -1.000000
vn 0.000000 0.000000 -1.000000
vn -0.076231 -0.126927 -0.988979
vn -0.387723 -0.729913 -0.562937
vn -0.330409 -0.744570 -0.580039
vn -0.041451 -0.124184 -0.991393
vn 0.000000 0.000000 -1.000000
vn 0.000000 0.000000 -1.000000
vn -0.055225 -0.123419 -0.990817
vn -0.252313 -0.766217 -0.590974
vn -0.174496 -0.786217 -0.592802
vn -0.090682 -0.113654 -0.989373
vn -0.005615 -0.012456 -0.999907
vn -0.012248 -0.021322 -0.999698
vn -0.101291 -0.105119 -0.989288
vn -0.539421 -0.566047 -0.623391
vn -0.275978 -0.614659 -0.738939
vn -0.020777 -0.133582 -0.990820
vn 0.000000 0.000000 -1.000000
vn 0.000000 0.000000 -1.000000
vn -0.028875 -0.127238 -0.991452
vn -0.121658 -0.801067 -0.586082
vn -0.078988 -0.807065 -0.585155
vn -0.428395 -0.717990 -0.548606
vn -0.521315 -0.653982 -0.548214
vn -0.629532 -0.345322 -0.696019
vn -0.126806 -0.052737 -0.990525
vn -0.137813 0.015625 -0.990335
vn -0.660619 -0.270219 -0.700403
vn -0.454790 -0.399393 -0.796022
vn -0.086364 -0.089733 -0.992214
vn -0.021567 -0.024847 -0.999459
vn -0.025143 -0.017351 -0.999533
vn -0.115670 -0.081517 -0.989937
vn -0.392601 -0.511972 -0.764035
vn -0.548968 -0.732609 -0.402392
vn -0.888786 -0.115802 -0.443452
vn -0.720945 -0.103777 -0.685177
vn -0.030886 -0.047550 -0.998391
vn 0.000172 -0.001141 -0.999999
vn -0.001175 -0.005594 -0.999984
vn -0.049975 -0.093819 -0.994334
vn -0.471265 -0.441162 -0.763731
vn -0.660774 -0.619763 -0.423404
vn -0.780498 0.308813 -0.543560
vn -0.720492 -0.516911 -0.462270
vn -0.933912 -0.003196 -0.357488
vn -0.057996 -0.046204 -0.997247
vn -0.000129 0.000990 -1.000000
vn 0.050175 -0.084959 -0.995120
vn 0.002241 -0.240595 -0.970623
vn -0.086983 -0.906580 -0.412973
vn -0.113298 -0.817114 -0.565233
vn 0.045182 -0.350778 -0.935368
vn 0.108320 -0.187722 -0.976231
vn 0.273983 -0.490031 -0.827528
vn 0.457537 -0.802674 -0.382589
vn 0.592387 -0.230919 -0.771851
vn 0.921066 0.113614 -0.372465
vn 0.301272 -0.098131 -0.948475
vn 0.213727 -0.019130 -0.976706
vn 0.869392 0.214593 -0.445092
vn 0.782337 0.354089 -0.512416
vn 0.134519 0.067320 -0.988622
vn 0.013888 0.275957 -0.961070
vn 0.647455 0.570099 -0.505756
vn 0.610952 0.566970 -0.552524
vn 0.096944 0.101623 -0.990088
vn 0.116300 0.109090 -0.987205
vn 0.620274 0.596076 -0.509856
vn 0.591018 0.652976 -0.473625
vn 0.118321 0.128067 -0.984682
vn 0.111963 0.133877 -0.984653
vn 0.565479 0.685475 -0.458647
vn 0.566708 0.696810 -0.439657
vn 0.118061 0.143195 -0.982628
vn 0.121139 0.155296 -0.980412
vn 0.552988 0.717392 -0.423737
vn 0.520041 0.742691 -0.421863
vn 0.111679 0.158929 -0.980953
vn 0.165182 0.112982 -0.979770
vn 0.586752 0.690435 -0.423110
vn 0.041784 0.178917 -0.982976
vn 0.100186 0.156372 -0.982604
vn 0.486432 0.757042 -0.436200
vn 0.403100 0.802977 -0.439019
vn 0.451455 0.772303 -0.446919
vn 0.091694 0.157398 -0.983269
vn 0.077912 0.161287 -0.983827
vn 0.387942 0.799945 -0.457809
vn 0.294913 0.834089 -0.466179
vn 0.058121 0.165972 -0.984416
vn 0.038799 0.170357 -0.984618
vn 0.199999 0.860683 -0.468216
vn 0.138405 0.870239 -0.472787
vn 0.025998 0.166821 -0.985644
vn 0.020038 0.160651 -0.986808
vn 0.111192 0.869290 -0.481634
vn -0.123101 0.033429 -0.991831
vn -0.122783 0.010045 -0.992383
vn -0.627481 0.058210 -0.776453
vn -0.696091 -0.000666 -0.717953
vn 0.000321 -0.118059 -0.993007
vn 0.000000 0.000000 -1.000000
vn 0.000000 0.000000 -1.000000
vn -0.004971 -0.126999 -0.991890
vn 0.122390 0.855842 -0.502549
vn 0.020815 0.152058 -0.988152
vn 0.033305 0.133113 -0.990541
vn 0.224045 0.807649 -0.545442
vn -0.024564 -0.798729 -0.601190
vn 0.010852 -0.785349 -0.618959
vn 0.000000 0.000000 -1.000000
vn 0.000000 0.000000 -1.000000
vn 0.008603 -0.100563 -0.994894
vn 0.015131 -0.065601 -0.997731
vn 0.039968 -0.752849 -0.656978
vn 0.079392 -0.533846 -0.841846
vn 0.364829 0.717677 -0.593160
vn 0.053141 0.115079 -0.991934
vn 0.048192 0.077699 -0.995811
vn 0.340743 0.580311 -0.739685
vn -0.632631 0.361194 -0.685067
vn -0.381795 0.392664 -0.836688
vn -0.099402 0.120120 -0.987770
vn 0.435566 -0.137027 -0.889666
vn 0.589333 -0.183784 -0.786708
vn 0.804853 -0.260948 -0.533027
vn 0.862228 -0.209845 -0.461008
vn 0.327233 -0.065562 -0.942667
vn 0.050998 0.054485 -0.997211
vn -0.357195 0.036895 -0.933301
vn -0.395218 0.250067 -0.883894
vn 0.255466 -0.014634 -0.966707
vn 0.133650 0.046714 -0.989927
vn -0.313571 -0.110096 -0.943161
vn -0.275581 -0.041484 -0.960382
vn 0.076920 -0.002377 -0.997034
vn 0.083281 -0.004340 -0.996517
vn -0.289123 -0.129204 -0.948533
vn -0.289190 -0.155233 -0.944601
vn 0.085812 -0.004184 -0.996303
vn -0.274957 -0.161018 -0.947878
vn 0.130092 0.009275 -0.991459
vn 0.241706 -0.046229 -0.969248
vn -0.344116 -0.087045 -0.934883
vn -0.308695 -0.092774 -0.946626
vn -0.725622 0.065627 -0.684956
vn -0.442706 -0.538370 -0.717057
vn 0.201582 -0.725820 -0.657685
vn -0.159555 -0.212516 -0.964043
vn -0.120461 -0.170319 -0.977998
vn -0.638493 -0.027121 -0.769150
vn -0.555895 -0.332991 -0.761641
vn -0.103132 -0.596552 -0.795921
vn -0.229909 -0.260222 -0.937777
vn -0.193999 -0.197399 -0.960936
vn -0.733242 0.379501 -0.564212
vn -0.720145 0.339719 -0.604965
vn 0.285953 -0.791382 -0.540319
vn -0.247599 -0.233348 -0.940342
vn -0.179187 -0.204121 -0.962407
vn 0.343276 -0.746426 -0.570096
vn -0.782594 0.291577 -0.550026
vn -0.536166 0.316271 -0.782623
vn -0.184906 -0.864356 -0.467652
vn -0.431242 -0.278750 -0.858096
vn -0.248098 -0.175755 -0.952658
vn 0.383706 -0.237586 -0.892369
vn 0.394676 -0.232175 -0.889003
vn -0.300638 0.352754 -0.886105
vn -0.272407 0.339719 -0.900214
vn -0.234447 0.253260 -0.938560
vn -0.149032 0.258178 -0.954533
vn -0.127718 0.222846 -0.966451
vn -0.177297 0.217162 -0.959899
vn 0.413451 0.752273 -0.512975
vn -0.067136 0.363621 -0.929125
vn 0.064860 0.145009 -0.987302
vn 0.584387 0.585248 -0.562118
vn -0.759081 0.120990 -0.639654
vn -0.859899 -0.401137 -0.315696
vn 0.097509 -0.001682 -0.995233
vn -0.278904 -0.170498 -0.945063
vn 0.538092 0.514383 -0.667733
vn 0.568014 0.013481 -0.822909
vn 0.558883 0.522295 -0.644094
vn 0.580686 0.016333 -0.813963
vn 0.776945 -0.130912 -0.615807
vn -0.321195 -0.145656 -0.935745
vn 0.788339 0.152803 -0.595964
vn 0.588682 -0.043957 -0.807169
vn 0.558713 0.401725 -0.725573
vn 0.504393 0.007810 -0.863439
vn 0.639756 0.540111 -0.546802
vn 0.667966 0.038625 -0.743189
vn 0.637292 0.539169 -0.550595
vn 0.656078 0.027818 -0.754180
vn -0.262808 0.880115 -0.395386
vn 0.082139 0.870263 -0.485691
vn -0.022609 0.272505 -0.961889
vn -0.592579 0.274800 -0.757189
vn 0.289427 0.893212 -0.344100
vn 0.067878 -0.941300 -0.330675
vn -0.008047 -0.885317 -0.464919
vn -0.321347 -0.728825 -0.604608
vn -0.610216 -0.554461 -0.565870
vn -0.846793 -0.072307 -0.526985
vn -0.792478 0.415105 -0.446840
vn -0.853154 0.345708 -0.390658
vn -0.925851 0.088459 -0.367390
vn 0.000000 0.000000 -1.000000
vn -0.013979 -0.135516 -0.990677
vn -0.036394 0.022725 -0.999079
vn -0.129145 -0.091319 -0.987412
vn -0.025518 0.001991 -0.999672
vn -0.044523 0.058045 -0.997321
vn 0.020300 -0.914333 -0.404455
vn -0.004386 -0.739552 -0.673085
vn 0.050452 -0.032296 -0.998204
vn -0.008245 -0.109194 -0.993986
vn 0.176193 -0.839551 -0.513917
vn -0.428239 -0.856633 -0.287736
vn 0.971245 0.064535 -0.229170
vn -0.936698 -0.070764 -0.342912
vn -0.937495 -0.033402 -0.346393
vn -0.886313 0.304283 -0.349086
vn -0.037111 -0.952856 -0.301144
vn 0.111262 0.993634 -0.017657
vn 0.084439 0.996267 0.017927
vn 0.060390 0.997346 -0.040663
vn 0.012418 -0.999709 0.020703
vn 0.024491 -0.999699 0.001155
vn -0.042614 -0.980662 -0.191015
vn -0.831573 0.384906 -0.400416
vn -0.031839 -0.149592 -0.988235
vn -0.416536 -0.734380 -0.535896
vn -0.943999 0.223804 -0.242441
vn -0.729298 0.424113 -0.536891
vn -0.728055 0.448742 -0.518235
vn 0.043154 -0.028429 -0.998664
vn 0.597831 0.688700 -0.410232
vn -0.592145 0.786834 -0.173946
vn 0.176399 0.141629 -0.974076
vn -0.691002 0.514730 -0.507513
vn -0.762979 0.431003 -0.481767
vn -0.134941 -0.900524 -0.413338
s 1
g pCube1
usemtl initialShadingGroup
f 86/299/1 1/300/2 84/301/3 83/302/4
s 2
f 39/1/5 40/2/6 354/526/7 355/528/8
s 1
f 89/25/9 23/176/10 88/473/11 87/477/12
f 92/353/13 95/357/14 249/360/15 248/358/16
f 94/247/17 5/248/18 101/249/19 100/250/20
f 103/343/21 93/348/22 247/354/23 246/349/24
f 105/251/25 7/255/26 110/256/27 109/252/28
f 111/372/29 114/376/30 254/381/31 253/377/32
f 113/277/33 9/278/34 120/468/35 119/280/36
f 122/333/37 104/338/38 245/344/39 244/339/40
f 124/257/41 11/259/42 129/260/43 128/258/44
f 337/515/45 331/516/46 13/254/47 102/253/48
f 136/388/49 37/392/50 134/393/51 133/389/52
f 136/124/49 15/128/53 142/129/54 141/125/55
f 144/380/56 135/385/57 256/390/58 255/386/59
f 151/291/60 31/106/61 149/105/62 148/292/63
f 152/365/64 112/368/65 252/373/66 251/369/67
f 159/98/68 29/97/69 157/96/70 156/99/71
f 163/119/72 35/114/73 161/113/74 160/120/75
f 168/408/76 171/181/77 261/409/78 259/410/79
f 174/471/80 21/182/81 173/183/82 172/180/83
f 178/179/84 89/25/9 263/21/85 262/412/86
f 181/19/87 182/20/88 263/21/85 264/22/89
f 176/26/90 22/29/91 184/30/92 183/27/93
f 166/31/94 4/32/95 186/416/96 185/413/97
f 139/404/98 16/400/99 188/395/100 187/399/101
f 147/230/102 18/226/103 191/229/104 190/233/105
f 117/222/106 10/217/107 193/221/108 192/225/109
f 155/212/110 20/500/111 195/211/112 194/216/113
f 334/508/114 335/519/115 14/199/116 196/203/117
f 98/193/118 6/192/119 198/197/120 197/198/121
f 108/196/122 8/201/123 200/206/124 199/202/125
f 127/351/126 12/346/127 202/340/128 201/345/129
f 203/312/130 180/313/131 237/307/132 238/308/133
f 207/315/134 206/321/135 242/329/136 241/322/137
f 211/341/138 28/336/139 210/330/140 209/335/141
f 208/261/142 27/263/143 215/264/144 214/262/145
f 239/311/146 85/306/147 216/310/148 240/316/149
f 217/265/150 25/267/151 219/268/152 218/266/153
f 221/331/154 26/324/155 204/317/156 222/323/157
s 2
f 296/417/158 297/418/159 44/421/160
f 44/421/160 297/418/159 43/420/161
f 297/418/159 298/419/162 43/420/161
f 298/33/162 375/550/163 378/553/164 43/34/161
f 43/34/161 378/553/164 357/530/165
s 38
f 293/428/166 294/429/167 52/432/168
f 52/432/168 294/429/167 54/431/169
f 294/429/167 295/430/170 54/431/169
f 55/434/171 57/433/172 58/435/173 56/436/174
f 52/432/168 54/431/169 57/433/172 55/434/171
f 61/444/175 59/443/176 60/447/177 62/448/178
f 56/436/174 58/435/173 65/437/179 66/438/180
f 71/452/181 69/451/182 70/455/183 72/456/184
s 1
f 225/88/185 19/89/186 132/90/187 223/91/188
f 227/281/189 9/467/34 153/364/190 229/366/191
f 232/101/192 17/102/193 121/103/194 231/104/195
f 234/295/196 15/298/53 145/379/197 235/383/198
f 266/94/199 33/93/200 224/92/201 265/95/202
f 268/287/203 34/285/204 230/370/205 267/100/206
f 272/107/207 2/476/208 271/475/209 270/110/210
f 274/184/211 21/411/81 170/186/212 275/121/213
s 2
f 47/35/214 362/535/215 363/536/216 48/36/217
f 45/423/218 47/422/214 48/424/217 46/425/219
f 48/36/217 363/536/216 354/527/7 40/37/6
f 46/425/219 48/424/217 40/426/6 39/427/5
f 43/34/161 357/530/165 362/535/215 47/35/214
f 44/421/160 43/420/161 47/422/214 45/423/218
s 1
f 276/116/220 169/115/221 260/122/222 278/123/223
f 280/407/224 38/406/225 189/403/226 279/405/227
f 277/111/228 37/117/50 143/118/229 282/464/230
s 38
f 62/448/178 60/447/177 69/451/182 71/452/181
f 78/440/231 77/439/232 59/443/176 61/444/175
f 62/448/178 71/452/181 76/457/233 75/458/234
f 78/440/231 61/444/175 80/449/235 79/450/236
f 66/438/180 65/437/179 77/439/232 78/440/231
f 72/456/184 70/455/183 50/459/237 49/460/238
f 71/452/181 72/456/184 74/461/239 73/462/240
f 61/444/175 62/448/178 64/453/241 63/454/242
f 66/438/180 78/440/231 82/445/243 81/446/244
f 56/436/174 66/438/180 68/441/245 67/442/246
s 1
f 286/325/247 3/319/248 205/318/249 283/326/250
f 284/232/251 26/228/155 353/525/252 367/540/253
f 288/269/254 25/267/151 84/271/3 289/272/255
f 290/13/256 1/10/2 91/7/257 292/9/258 372/547/259
f 84/301/3 25/305/151 85/306/147 83/302/4
f 83/302/4 85/306/147 239/311/146 238/308/133
f 237/307/132 86/299/1 83/302/4 238/308/133
f 263/21/85 89/25/9 87/477/12 264/22/89
f 91/7/257 1/10/2 86/11/1 90/8/260
f 90/8/260 86/11/1 237/14/132 236/12/261
f 247/354/23 93/348/22 92/353/13 248/358/16
f 93/348/22 5/347/18 94/352/17 92/353/13
f 94/352/17 13/356/47 95/357/14 92/353/13
f 97/189/262 6/192/119 98/193/118 96/190/263
f 98/193/118 14/199/116 99/194/264 96/190/263
f 102/253/48 13/254/47 94/247/17 100/250/20
f 245/344/39 104/338/38 103/343/21 246/349/24
f 104/338/38 7/337/26 105/342/25 103/343/21
f 105/342/25 5/347/18 93/348/22 103/343/21
f 107/195/265 8/201/123 108/196/122 106/191/266
f 108/196/122 6/192/119 97/189/262 106/191/266
f 101/249/19 5/248/18 105/251/25 109/252/28
f 252/373/66 112/368/65 111/372/29 253/377/32
f 112/368/65 9/367/34 113/371/33 111/372/29
f 113/371/33 17/375/193 114/376/30 111/372/29
f 116/213/267 10/217/107 117/222/106 115/218/268
f 117/222/106 18/226/103 118/223/269 115/218/268
f 121/283/194 17/284/193 113/277/33 119/280/36
f 243/334/270 123/328/271 122/333/37 244/339/40
f 123/328/271 11/327/42 124/332/41 122/333/37
f 124/332/41 7/337/26 104/338/38 122/333/37
f 126/204/272 12/209/127 127/205/126 125/200/273
f 127/205/126 8/201/123 107/195/265 125/200/273
f 110/256/27 7/255/26 124/257/41 128/258/44
f 249/360/15 95/357/14 332/523/274 333/522/275
f 95/357/14 13/356/47 331/502/46 332/523/274
f 99/194/264 14/199/116 335/519/115 336/518/276
f 133/389/52 134/393/51 258/398/277 257/394/278
f 256/390/58 135/385/57 133/389/52 257/394/278
f 135/385/57 15/384/53 136/388/49 133/389/52
f 138/231/279 16/234/99 139/239/98 137/235/280
f 139/239/98 38/242/225 140/240/281 137/235/280
f 143/118/229 37/117/50 136/124/49 141/125/55
f 254/381/31 114/376/30 144/380/56 255/386/59
f 114/376/30 17/375/193 145/465/197 144/380/56
f 145/465/197 15/384/53 135/385/57 144/380/56
f 118/223/269 18/226/103 147/230/102 146/227/282
f 147/230/102 16/234/99 138/231/279 146/227/282
f 150/293/283 32/294/284 151/291/60 148/292/63
f 250/489/285 130/491/286 152/365/64 251/369/67
f 130/491/286 19/362/186 153/466/190 152/365/64
f 153/466/190 9/367/34 112/368/65 152/365/64
f 131/493/287 20/500/111 155/212/110 154/207/288
f 155/212/110 10/217/107 116/213/267 154/207/288
f 158/290/289 30/289/290 159/98/68 156/99/71
f 162/474/291 36/470/292 163/119/72 160/120/75
f 165/480/293 4/32/95 166/31/94 164/479/294
f 166/31/94 22/29/91 167/28/295 164/479/294
f 260/414/222 169/415/221 168/408/76 259/410/79
f 169/415/221 2/476/208 170/186/212 168/408/76
f 170/186/212 21/411/81 171/181/77 168/408/76
f 88/177/11 23/472/10 174/471/80 172/180/83
f 167/28/295 22/29/91 176/26/90 175/478/296
f 176/26/90 24/24/297 177/23/298 175/478/296
f 261/409/78 171/181/77 178/179/84 262/412/86
f 171/181/77 21/411/81 174/178/80 178/179/84
f 174/178/80 23/176/10 89/25/9 178/179/84
f 180/16/131 365/538/299 179/15/300 236/12/261 237/14/132
f 180/16/131 3/17/248 352/524/301 365/538/299
f 177/23/298 24/24/297 182/20/88 181/19/87
f 183/27/93 184/30/92 261/409/78 262/412/86
f 182/20/88 183/27/93 262/412/86 263/21/85
f 182/20/88 24/24/297 176/26/90 183/27/93
f 185/413/97 186/416/96 260/414/222 259/410/79
f 184/30/92 185/413/97 259/410/79 261/409/78
f 184/30/92 22/29/91 166/31/94 185/413/97
f 187/399/101 188/395/100 256/390/58 257/394/278
f 189/403/226 187/399/101 257/394/278 258/398/277
f 189/403/226 38/406/225 139/404/98 187/399/101
f 190/391/105 191/387/104 254/381/31 255/386/59
f 188/395/100 190/391/105 255/386/59 256/390/58
f 188/395/100 16/400/99 147/401/102 190/391/105
f 192/382/109 193/378/108 252/373/66 253/377/32
f 191/387/104 192/382/109 253/377/32 254/381/31
f 191/229/104 18/226/103 117/222/106 192/225/109
f 194/374/113 195/498/112 250/489/285 251/369/67
f 193/378/108 194/374/113 251/369/67 252/373/66
f 193/221/108 10/217/107 155/212/110 194/216/113
f 333/522/275 334/520/114 196/363/117 249/360/15
f 197/361/121 198/359/120 247/354/23 248/358/16
f 196/363/117 197/361/121 248/358/16 249/360/15
f 196/203/117 14/199/116 98/193/118 197/198/121
f 199/355/125 200/350/124 245/344/39 246/349/24
f 198/359/120 199/355/125 246/349/24 247/354/23
f 198/197/120 6/192/119 108/196/122 199/202/125
f 201/345/129 202/340/128 243/334/270 244/339/40
f 200/350/124 201/345/129 244/339/40 245/344/39
f 200/206/124 8/201/123 127/205/126 201/210/129
f 204/317/156 203/312/130 238/308/133 239/311/146
f 204/317/156 26/324/155 205/318/249 203/312/130
f 205/318/249 3/319/248 180/313/131 203/312/130
f 207/315/134 27/314/143 208/320/142 206/321/135
f 208/320/142 11/327/42 123/328/271 206/321/135
f 206/321/135 123/328/271 243/334/270 242/329/136
f 209/335/141 210/330/140 241/322/137 242/329/136
f 202/340/128 209/335/141 242/329/136 243/334/270
f 202/340/128 12/346/127 211/341/138 209/335/141
f 213/214/302 28/220/139 211/215/138 212/208/303
f 211/215/138 12/209/127 126/204/272 212/208/303
f 129/260/43 11/259/42 208/261/142 214/262/145
f 85/306/147 25/305/151 217/309/150 216/310/148
f 217/309/150 27/314/143 207/315/134 216/310/148
f 216/310/148 207/315/134 241/322/137 240/316/149
f 215/264/144 27/263/143 217/265/150 218/266/153
f 221/224/154 28/220/139 213/214/302 220/219/304 366/539/305
f 222/323/157 204/317/156 239/311/146 240/316/149
f 241/322/137 210/330/140 222/323/157 240/316/149
f 210/330/140 28/336/139 221/331/154 222/323/157
f 224/92/201 33/93/200 225/88/185 223/91/188
f 120/279/35 9/467/34 227/281/189 226/282/306
f 227/281/189 34/285/204 228/286/307 226/282/306
f 153/364/190 19/89/186 225/88/185 229/366/191
f 225/88/185 33/93/200 230/370/205 229/366/191
f 230/370/205 34/285/204 227/281/189 229/366/191
f 149/105/62 31/106/61 232/101/192 231/104/195
f 142/297/54 15/298/53 234/295/196 233/296/308
f 234/295/196 32/294/284 150/293/283 233/296/308
f 145/379/197 17/102/193 232/101/192 235/383/198
f 232/101/192 31/106/61 151/291/60 235/383/198
f 151/291/60 32/294/284 234/295/196 235/383/198
f 157/96/70 29/97/69 266/94/199 265/95/202
f 230/370/205 33/93/200 266/94/199 267/100/206
f 266/94/199 29/97/69 159/98/68 267/100/206
f 159/98/68 30/289/290 268/287/203 267/100/206
f 228/286/307 34/285/204 268/287/203 269/288/309
f 268/287/203 30/289/290 158/290/289 269/288/309
f 161/113/74 35/114/73 272/107/207 270/110/210
f 173/183/82 21/182/81 274/469/211 273/185/310
f 274/469/211 36/187/292 162/188/291 273/185/310
f 170/186/212 2/476/208 272/107/207 275/121/213
f 272/107/207 35/114/73 163/119/72 275/121/213
f 163/119/72 36/470/292 274/184/211 275/121/213
f 258/398/277 134/393/51 276/397/220 278/402/223
f 134/393/51 37/392/50 277/396/228 276/397/220
f 277/463/228 2/108/208 169/115/221 276/116/220
f 278/402/223 279/405/227 189/403/226 258/398/277
f 260/122/222 186/126/96 279/127/227 278/123/223
f 186/126/96 4/130/95 280/131/224 279/127/227
f 140/240/281 38/242/225 280/246/224 281/243/311
f 280/131/224 4/130/95 165/132/293 281/133/311
f 271/109/209 2/108/208 277/463/228 282/112/230
f 205/237/249 26/228/155 284/232/251 283/238/250
f 284/232/251 42/236/312 285/241/313 283/238/250
f 285/241/313 41/244/314 286/245/247 283/238/250
f 286/245/247 41/244/314 358/531/315 368/542/316
f 219/268/152 25/267/151 288/269/254 370/544/317 287/270/318
f 288/269/254 51/273/319 369/543/320 370/544/317
f 84/301/3 1/300/2 290/303/256 289/304/255
f 290/275/256 53/276/321 291/274/322 289/272/255
f 291/274/322 51/273/319 288/269/254 289/272/255
s 38
f 300/41/323 299/38/324 364/537/325 52/40/168 55/42/171
f 301/43/326 300/41/323 55/42/171 56/44/174
f 302/173/327 301/172/326 56/174/174 67/175/246
f 303/75/328 302/74/327 67/76/246 68/77/245
f 66/79/180 304/78/329 303/75/328 68/77/245
f 305/169/330 304/168/329 66/170/180 81/171/244
f 306/155/331 305/154/330 81/156/244 82/157/243
f 78/159/231 307/158/332 306/155/331 82/157/243
f 308/151/333 307/150/332 78/152/231 79/153/236
f 309/141/334 308/140/333 79/142/236 80/143/235
f 61/145/175 310/144/335 309/141/334 80/143/235
f 311/165/336 310/164/335 61/166/175 63/167/242
f 312/69/337 311/68/336 63/70/242 64/71/241
f 62/73/178 313/72/338 312/69/337 64/71/241
f 314/147/339 313/146/338 62/148/178 75/149/234
f 315/135/340 314/134/339 75/136/234 76/137/233
f 71/139/181 316/138/341 315/135/340 76/137/233
f 317/161/342 316/160/341 71/162/181 73/163/240
f 318/81/343 317/80/342 73/82/240 74/83/239
f 72/85/184 319/84/344 318/81/343 74/83/239
f 320/86/345 319/84/344 72/85/184 49/87/238
f 321/64/346 320/66/345 49/67/238 50/65/237
f 70/63/183 322/62/347 321/64/346 50/65/237
f 69/61/182 323/60/348 322/62/347 70/63/183
f 60/59/177 324/58/349 323/60/348 69/61/182
f 59/57/176 325/56/350 324/58/349 60/59/177
f 77/55/232 326/54/351 325/56/350 59/57/176
f 65/53/179 327/52/352 326/54/351 77/55/232
f 58/51/173 328/50/353 327/52/352 65/53/179
f 57/49/172 329/48/354 328/50/353 58/51/173
f 54/47/169 377/552/355 330/45/356 329/48/354 57/49/172
f 295/46/170 374/549/357 377/552/355 54/47/169
s 1
f 338/488/358 339/503/359 341/483/360 340/490/361
f 339/503/359 338/488/358 350/499/362 351/505/363
f 340/484/361 341/513/360 347/512/364 346/497/365
f 342/494/366 343/510/367 345/507/368 344/492/369
f 344/492/369 345/507/368 349/485/370 348/501/371
f 348/486/371 349/487/370 351/505/363 350/499/362
f 338/488/358 130/491/286 250/489/285 350/499/362
f 340/490/361 19/362/186 130/491/286 338/488/358
f 344/492/369 20/500/111 131/493/287 342/494/366
f 132/495/187 19/496/186 340/484/361 346/497/365
f 195/498/112 348/486/371 350/499/362 250/489/285
f 195/211/112 20/500/111 344/492/369 348/501/371
f 332/504/274 331/517/46 341/483/360 339/503/359
f 333/506/275 332/504/274 339/503/359 351/505/363
f 349/487/370 334/482/114 333/506/275 351/505/363
f 345/507/368 335/509/115 334/521/114 349/485/370
f 336/511/276 335/509/115 345/507/368 343/510/367
f 341/513/360 331/481/46 337/514/45 347/512/364
s 2
f 359/532/372 379/554/373 44/5/160
f 379/554/373 376/551/374 296/6/158 44/5/160
s 38
f 364/537/325 373/548/375 293/39/166 52/40/168
s 2
f 361/534/376 360/533/377 45/4/218 46/3/219
f 355/528/8 361/534/376 46/3/219 39/1/5
f 360/533/377 359/532/372 44/5/160 45/4/218
s 1
f 366/539/305 353/525/252 26/228/155 221/224/154
f 367/540/253 356/529/378 42/236/312 284/232/251
f 368/541/316 352/524/301 3/17/248 286/18/247
f 372/546/259 371/545/379 53/276/321 290/275/256
f 465/555/380 462/558/381 463/557/382 380/556/383
s 2
f 418/559/384 355/562/8 354/561/7 419/560/385
s 1
f 466/563/386 87/566/12 88/565/11 402/564/387
f 467/567/388 561/570/389 562/569/390 470/568/391
f 469/571/392 100/574/20 101/573/19 384/572/393
f 472/575/394 559/578/395 560/577/396 468/576/397
f 474/579/398 109/582/28 110/581/27 386/580/399
f 476/583/400 566/586/401 567/585/402 479/584/403
f 478/587/404 119/590/36 120/589/35 388/588/405
f 481/591/406 557/594/407 558/593/408 473/592/409
f 483/595/410 128/598/44 129/597/43 390/596/411
f 337/599/45 102/602/48 392/601/412 602/600/413
f 489/603/414 486/606/415 487/605/416 416/604/417
f 489/607/414 141/610/55 142/609/54 394/608/418
f 491/611/419 568/614/420 569/613/421 488/612/422
f 494/615/423 148/618/424 149/617/425 410/616/426
f 495/619/427 564/622/428 565/621/429 477/620/430
f 498/623/431 156/626/432 157/625/70 408/624/433
f 499/627/434 160/630/75 161/629/74 414/628/435
f 501/631/436 572/634/437 574/633/438 504/632/439
f 505/635/440 172/638/83 173/637/82 400/636/441
f 507/639/442 575/641/443 576/640/444 466/563/386
f 181/642/87 264/644/445 576/640/444 509/643/446
f 506/645/447 510/648/448 511/647/449 401/646/450
f 500/649/451 512/652/452 513/651/453 383/650/454
f 490/653/455 514/656/456 515/655/457 395/654/458
f 493/657/459 517/660/460 518/659/461 397/658/462
f 480/661/463 519/664/464 520/663/465 389/662/466
f 497/665/467 521/668/468 522/667/469 399/666/470
f 605/669/471 523/672/472 393/671/473 606/670/474
f 471/673/475 524/676/476 525/675/477 385/674/478
f 475/677/479 526/680/480 527/679/481 387/678/482
f 484/681/483 528/684/484 529/683/485 391/682/486
f 530/685/487 551/688/488 550/687/489 508/686/490
f 534/689/491 554/692/492 555/691/493 533/690/494
f 538/693/495 536/696/496 537/695/497 407/694/498
f 535/697/499 214/700/145 215/699/144 406/698/500
f 552/701/501 553/704/502 539/703/503 464/702/504
f 540/705/505 218/708/153 219/707/152 404/706/506
f 541/709/507 542/712/508 531/711/509 405/710/510
s 2
f 599/713/511 423/715/512 600/714/513
f 423/715/512 422/716/514 600/714/513
f 600/714/513 422/716/514 601/717/515
f 601/718/515 422/721/514 378/720/164 375/719/516
f 422/721/514 357/722/165 378/720/164
s 38
f 596/723/517 431/725/518 597/724/519
f 431/725/518 433/726/520 597/724/519
f 597/724/519 433/726/520 598/727/521
f 434/728/522 435/731/523 437/730/524 436/729/525
f 431/725/518 434/728/522 436/729/525 433/726/520
f 440/732/526 441/735/527 439/734/528 438/733/529
f 435/731/523 445/737/530 444/736/531 437/730/524
f 450/738/532 451/741/533 449/740/534 448/739/535
s 1
f 543/742/536 223/745/188 132/744/187 398/743/537
f 544/746/538 545/749/539 496/748/540 388/747/405
f 547/750/541 231/753/195 121/752/194 396/751/542
f 548/754/543 549/757/544 492/756/545 394/755/418
f 577/758/546 265/761/202 224/760/201 412/759/547
f 579/762/548 578/765/549 546/764/550 413/763/551
f 580/766/552 270/769/210 271/768/209 381/767/553
f 581/770/554 582/773/555 503/772/556 400/771/441
s 2
f 426/774/557 427/777/558 363/776/216 362/775/215
f 424/778/559 425/781/560 427/780/558 426/779/557
f 427/777/558 419/783/385 354/782/7 363/776/216
f 425/781/560 418/785/384 419/784/385 427/780/558
f 422/721/514 426/774/557 362/775/215 357/722/165
f 423/715/512 424/778/559 426/779/557 422/716/514
s 1
f 583/786/561 585/789/562 573/788/563 502/787/564
f 587/790/565 586/793/566 516/792/567 417/791/568
f 584/794/569 282/797/230 143/796/570 416/795/417
s 38
f 441/735/527 450/738/532 448/739/535 439/734/528
f 457/798/571 440/732/526 438/733/529 456/799/572
f 441/735/527 454/801/573 455/800/574 450/738/532
f 457/798/571 458/803/575 459/802/576 440/732/526
f 445/737/530 457/798/571 456/799/572 444/736/531
f 451/741/533 428/805/577 429/804/578 449/740/534
f 450/738/532 452/807/579 453/806/580 451/741/533
f 440/732/526 442/809/581 443/808/582 441/735/527
f 445/737/530 460/811/583 461/810/584 457/798/571
f 435/731/523 446/813/585 447/812/586 445/737/530
s 1
f 591/814/587 588/817/588 532/816/589 382/815/590
f 589/818/591 367/821/253 353/820/252 405/819/510
f 592/822/592 593/824/593 463/823/382 404/706/506
f 594/825/594 372/829/595 292/828/596 91/827/597 380/826/383
f 463/557/382 462/558/381 464/702/504 404/830/506
f 462/558/381 551/688/488 552/701/501 464/702/504
f 550/687/489 551/688/488 462/558/381 465/555/380
f 576/640/444 264/644/445 87/566/12 466/563/386
f 91/827/597 90/832/598 465/831/380 380/826/383
f 90/832/598 236/834/599 550/833/489 465/831/380
f 560/577/396 561/570/389 467/567/388 468/576/397
f 468/576/397 467/567/388 469/836/392 384/835/393
f 469/836/392 467/567/388 470/568/391 392/837/412
f 97/838/262 96/839/263 471/673/475 385/674/478
f 471/673/475 96/839/263 99/840/264 393/671/473
f 102/602/48 100/574/20 469/571/392 392/601/412
f 558/593/408 559/578/395 472/575/394 473/592/409
f 473/592/409 472/575/394 474/842/398 386/841/399
f 474/842/398 472/575/394 468/576/397 384/835/393
f 107/843/265 106/844/266 475/677/479 387/678/482
f 475/677/479 106/844/266 97/838/262 385/674/478
f 101/573/19 109/582/28 474/579/398 384/572/393
f 565/621/429 566/586/401 476/583/400 477/620/430
f 477/620/430 476/583/400 478/846/404 388/845/405
f 478/846/404 476/583/400 479/584/403 396/847/542
f 116/848/267 115/849/268 480/661/463 389/662/466
f 480/661/463 115/849/268 118/850/269 397/658/462
f 121/851/194 119/590/36 478/587/404 396/852/542
f 556/853/600 557/594/407 481/591/406 482/854/601
f 482/854/601 481/591/406 483/856/410 390/855/411
f 483/856/410 481/591/406 473/592/409 386/841/399
f 126/857/272 125/860/273 484/859/483 391/858/486
f 484/859/483 125/860/273 107/843/265 387/678/482
f 110/581/27 128/598/44 483/595/410 386/580/399
f 562/569/390 604/862/602 603/861/603 470/568/391
f 470/568/391 603/861/603 602/863/413 392/837/412
f 99/840/264 336/864/276 606/670/474 393/671/473
f 486/606/415 570/866/604 571/865/605 487/605/416
f 569/613/421 570/866/604 486/606/415 488/612/422
f 488/612/422 486/606/415 489/603/414 394/867/418
f 138/868/279 137/871/280 490/870/455 395/869/458
f 490/870/455 137/871/280 140/873/281 417/872/568
f 143/796/570 141/610/55 489/607/414 416/795/417
f 567/585/402 568/614/420 491/611/419 479/584/403
f 479/584/403 491/611/419 492/874/545 396/847/542
f 492/874/545 491/611/419 488/612/422 394/867/418
f 118/850/269 146/875/282 493/657/459 397/658/462
f 493/657/459 146/875/282 138/868/279 395/869/458
f 150/876/606 148/618/424 494/615/423 411/877/607
f 563/878/608 564/622/428 495/619/427 485/879/609
f 485/879/609 495/619/427 496/881/540 398/880/537
f 496/881/540 495/619/427 477/620/430 388/845/405
f 131/882/287 154/883/288 497/665/467 399/666/470
f 497/665/467 154/883/288 116/848/267 389/662/466
f 158/884/289 156/626/432 498/623/431 409/885/610
f 162/886/291 160/630/75 499/627/434 415/887/611
f 165/888/293 164/889/294 500/649/451 383/650/454
f 500/649/451 164/889/294 167/890/295 401/646/450
f 573/891/563 572/634/437 501/631/436 502/892/564
f 502/892/564 501/631/436 503/772/556 381/767/553
f 503/772/556 501/631/436 504/632/439 400/771/441
f 88/893/11 172/638/83 505/635/440 402/894/387
f 167/890/295 175/895/296 506/645/447 401/646/450
f 506/645/447 175/895/296 177/897/298 403/896/612
f 574/633/438 575/641/443 507/639/442 504/632/439
f 504/632/439 507/639/442 505/898/440 400/771/441
f 505/898/440 507/639/442 466/563/386 402/564/387
f 508/899/490 550/833/489 236/834/599 179/901/613 365/900/614
f 508/899/490 365/900/614 352/903/615 382/902/590
f 177/897/298 181/642/87 509/643/446 403/896/612
f 510/648/448 575/641/443 574/633/438 511/647/449
f 509/643/446 576/640/444 575/641/443 510/648/448
f 509/643/446 510/648/448 506/645/447 403/896/612
f 512/652/452 572/634/437 573/891/563 513/651/453
f 511/647/449 574/633/438 572/634/437 512/652/452
f 511/647/449 512/652/452 500/649/451 401/646/450
f 514/656/456 570/866/604 569/613/421 515/655/457
f 516/792/567 571/865/605 570/866/604 514/656/456
f 516/792/567 514/656/456 490/653/455 417/791/568
f 517/904/460 568/614/420 567/585/402 518/905/461
f 515/655/457 569/613/421 568/614/420 517/904/460
f 515/655/457 517/904/460 493/906/459 395/654/458
f 519/907/464 566/586/401 565/621/429 520/908/465
f 518/905/461 567/585/402 566/586/401 519/907/464
f 518/659/461 519/664/464 480/661/463 397/658/462
f 521/909/468 564/622/428 563/878/608 522/910/469
f 520/908/465 565/621/429 564/622/428 521/909/468
f 520/663/465 521/668/468 497/665/467 389/662/466
f 604/862/602 562/569/390 523/912/472 605/911/471
f 524/913/476 561/570/389 560/577/396 525/914/477
f 523/912/472 562/569/390 561/570/389 524/913/476
f 523/672/472 524/676/476 471/673/475 393/671/473
f 526/915/480 559/578/395 558/593/408 527/916/481
f 525/914/477 560/577/396 559/578/395 526/915/480
f 525/675/477 526/680/480 475/677/479 385/674/478
f 528/684/484 557/594/407 556/853/600 529/683/485
f 527/916/481 558/593/408 557/594/407 528/684/484
f 527/679/481 528/917/484 484/859/483 387/678/482
f 531/711/509 552/701/501 551/688/488 530/685/487
f 531/711/509 530/685/487 532/816/589 405/710/510
f 532/816/589 530/685/487 508/686/490 382/815/590
f 534/689/491 533/690/494 535/919/499 406/918/500
f 535/919/499 533/690/494 482/854/601 390/855/411
f 533/690/494 555/691/493 556/853/600 482/854/601
f 536/696/496 555/691/493 554/692/492 537/695/497
f 529/683/485 556/853/600 555/691/493 536/696/496
f 529/683/485 536/696/496 538/693/495 391/682/486
f 213/920/302 212/923/303 538/922/495 407/921/498
f 538/922/495 212/923/303 126/857/272 391/858/486
f 129/597/43 214/700/145 535/697/499 390/596/411
f 464/702/504 539/703/503 540/924/505 404/830/506
f 540/924/505 539/703/503 534/689/491 406/918/500
f 539/703/503 553/704/502 554/692/492 534/689/491
f 215/699/144 218/708/153 540/705/505 406/698/500
f 541/925/507 366/927/305 220/926/304 213/920/302 407/921/498
f 542/712/508 553/704/502 552/701/501 531/711/509
f 554/692/492 553/704/502 542/712/508 537/695/497
f 537/695/497 542/712/508 541/709/507 407/694/498
f 224/760/201 223/745/188 543/742/536 412/759/547
f 120/928/35 226/929/306 544/746/538 388/747/405
f 544/746/538 226/929/306 228/930/307 413/763/551
f 496/748/540 545/749/539 543/742/536 398/743/537
f 543/742/536 545/749/539 546/764/550 412/759/547
f 546/764/550 545/749/539 544/746/538 413/763/551
f 149/617/425 231/753/195 547/750/541 410/616/426
f 142/931/54 233/932/616 548/754/543 394/755/418
f 548/754/543 233/932/616 150/876/606 411/877/607
f 492/756/545 549/757/544 547/750/541 396/751/542
f 547/750/541 549/757/544 494/615/423 410/616/426
f 494/615/423 549/757/544 548/754/543 411/877/607
f 157/625/70 265/761/202 577/758/546 408/624/433
f 546/764/550 578/765/549 577/758/546 412/759/547
f 577/758/546 578/765/549 498/623/431 408/624/433
f 498/623/431 578/765/549 579/762/548 409/885/610
f 228/930/307 269/933/309 579/762/548 413/763/551
f 579/762/548 269/933/309 158/884/289 409/885/610
f 161/629/74 270/769/210 580/766/552 414/628/435
f 173/637/82 273/935/310 581/934/554 400/636/441
f 581/934/554 273/935/310 162/937/291 415/936/611
f 503/772/556 582/773/555 580/766/552 381/767/553
f 580/766/552 582/773/555 499/627/434 414/628/435
f 499/627/434 582/773/555 581/770/554 415/887/611
f 571/865/605 585/939/562 583/938/561 487/605/416
f 487/605/416 583/938/561 584/940/569 416/604/417
f 584/941/569 583/786/561 502/787/564 381/942/553
f 585/939/562 571/865/605 516/792/567 586/793/566
f 573/788/563 585/789/562 586/944/566 513/943/453
f 513/943/453 586/944/566 587/946/565 383/945/454
f 140/873/281 281/948/311 587/947/565 417/872/568
f 587/946/565 281/950/311 165/949/293 383/945/454
f 271/951/209 282/952/230 584/941/569 381/942/553
f 532/953/589 588/954/588 589/818/591 405/819/510
f 589/818/591 588/954/588 590/956/617 421/955/618
f 590/956/617 588/954/588 591/958/587 420/957/619
f 591/958/587 368/960/316 358/959/315 420/957/619
f 219/707/152 287/962/318 370/961/317 592/822/592 404/706/506
f 592/822/592 370/961/317 369/964/320 430/963/620
f 463/557/382 593/966/593 594/965/594 380/556/383
f 594/967/594 593/824/593 595/969/621 432/968/622
f 595/969/621 593/824/593 592/822/592 430/963/620
s 38
f 300/970/323 434/974/522 431/973/518 364/972/325 299/971/324
f 301/975/326 435/976/523 434/974/522 300/970/323
f 302/977/327 446/980/585 435/979/523 301/978/326
f 303/981/328 447/984/586 446/983/585 302/982/327
f 445/985/530 447/984/586 303/981/328 304/986/329
f 305/987/330 460/990/583 445/989/530 304/988/329
f 306/991/331 461/994/584 460/993/583 305/992/330
f 457/995/571 461/994/584 306/991/331 307/996/332
f 308/997/333 458/1000/575 457/999/571 307/998/332
f 309/1001/334 459/1004/576 458/1003/575 308/1002/333
f 440/1005/526 459/1004/576 309/1001/334 310/1006/335
f 311/1007/336 442/1010/581 440/1009/526 310/1008/335
f 312/1011/337 443/1014/582 442/1013/581 311/1012/336
f 441/1015/527 443/1014/582 312/1011/337 313/1016/338
f 314/1017/339 454/1020/573 441/1019/527 313/1018/338
f 315/1021/340 455/1024/574 454/1023/573 314/1022/339
f 450/1025/532 455/1024/574 315/1021/340 316/1026/341
f 317/1027/342 452/1030/579 450/1029/532 316/1028/341
f 318/1031/343 453/1034/580 452/1033/579 317/1032/342
f 451/1035/533 453/1034/580 318/1031/343 319/1036/344
f 320/1037/345 428/1038/577 451/1035/533 319/1036/344
f 321/1039/346 429/1042/578 428/1041/577 320/1040/345
f 449/1043/534 429/1042/578 321/1039/346 322/1044/347
f 448/1045/535 449/1043/534 322/1044/347 323/1046/348
f 439/1047/528 448/1045/535 323/1046/348 324/1048/349
f 438/1049/529 439/1047/528 324/1048/349 325/1050/350
f 456/1051/572 438/1049/529 325/1050/350 326/1052/351
f 444/1053/531 456/1051/572 326/1052/351 327/1054/352
f 437/1055/524 444/1053/531 327/1054/352 328/1056/353
f 436/1057/525 437/1055/524 328/1056/353 329/1058/354
f 433/1059/520 436/1057/525 329/1058/354 330/1061/356 377/1060/355
f 598/1062/521 433/1059/520 377/1060/355 374/1063/623
s 1
f 607/1064/624 609/1067/625 610/1066/626 608/1065/627
f 608/1065/627 616/1069/628 615/1068/629 607/1064/624
f 609/1070/625 346/1073/365 347/1072/364 610/1071/626
f 342/1074/366 611/1077/630 612/1076/631 343/1075/367
f 611/1077/630 613/1079/632 614/1078/633 612/1076/631
f 613/1080/632 615/1068/629 616/1069/628 614/1081/633
f 607/1064/624 615/1068/629 563/878/608 485/879/609
f 609/1067/625 607/1064/624 485/879/609 398/880/537
f 611/1077/630 342/1074/366 131/882/287 399/666/470
f 132/1082/187 346/1073/365 609/1070/625 398/1083/537
f 522/910/469 563/878/608 615/1068/629 613/1080/632
f 522/667/469 613/1079/632 611/1077/630 399/666/470
f 603/1084/603 608/1065/627 610/1066/626 602/1085/413
f 604/1086/602 616/1069/628 608/1065/627 603/1084/603
f 614/1081/633 616/1069/628 604/1086/602 605/1087/471
f 612/1076/631 614/1078/633 605/1089/471 606/1088/474
f 336/1090/276 343/1075/367 612/1076/631 606/1088/474
f 610/1071/626 347/1072/364 337/1092/45 602/1091/413
s 2
f 359/1093/372 423/1095/512 379/1094/373
f 379/1094/373 423/1095/512 599/1097/511 376/1096/634
s 38
f 364/972/325 431/973/518 596/1099/517 373/1098/375
s 2
f 361/1100/376 425/1103/560 424/1102/559 360/1101/377
f 355/562/8 418/559/384 425/1103/560 361/1100/376
f 360/1101/377 424/1102/559 423/1095/512 359/1093/372
s 1
f 366/927/305 541/925/507 405/819/510 353/820/252
f 367/821/253 589/818/591 421/955/618 356/1104/378
f 368/1105/316 591/1106/587 382/902/590 352/903/615
f 372/1107/595 594/967/594 432/968/622 371/1108/635
