# This file uses centimeters as units for non-parametric coordinates.

mtllib Wall.mtl
g default
v -268.885630 -22.258882 -76.095513
v 268.885630 -22.258882 -76.095513
v -268.885630 289.912809 -76.095513
v 268.885630 289.912809 -76.095513
v -268.885630 289.912809 -102.306428
v 268.885630 289.912809 -102.306428
v -268.885630 -22.258882 -102.306428
v 268.885630 -22.258882 -102.306428
vt 0.236675 0.010933
vt 0.612300 0.659195
vt 0.054459 0.012532
vt 0.108922 0.741893
vt 0.626570 0.662122
vt 0.007881 0.971939
vt 0.058310 0.971459
vt 0.998359 0.021498
vt 0.105071 0.971468
vt 0.105254 0.012069
vt 0.170356 0.010933
vt 0.170296 0.741898
vt 0.175300 0.010927
vt 0.175240 0.741893
vt 0.058493 0.012060
vt 0.108982 0.010927
vt 0.998425 0.662084
vt 0.612365 0.018608
vt 0.626504 0.021536
vt 0.007698 0.012541
vt 0.240445 0.659157
vt 0.054642 0.971930
vt 0.240510 0.018571
vt 0.236614 0.741898
vn 0.000000 0.000000 1.000000
vn 0.000000 0.000000 1.000000
vn 0.000000 0.000000 1.000000
vn 0.000000 0.000000 1.000000
vn 0.000000 1.000000 0.000000
vn 0.000000 1.000000 0.000000
vn 0.000000 1.000000 0.000000
vn 0.000000 1.000000 0.000000
vn 0.000000 0.000000 -1.000000
vn 0.000000 0.000000 -1.000000
vn 0.000000 0.000000 -1.000000
vn 0.000000 0.000000 -1.000000
vn 0.000000 -1.000000 0.000000
vn 0.000000 -1.000000 0.000000
vn 0.000000 -1.000000 0.000000
vn 0.000000 -1.000000 0.000000
vn 1.000000 0.000000 0.000000
vn 1.000000 0.000000 0.000000
vn 1.000000 0.000000 0.000000
vn 1.000000 0.000000 0.000000
vn -1.000000 0.000000 0.000000
vn -1.000000 0.000000 0.000000
vn -1.000000 0.000000 0.000000
vn -1.000000 0.000000 0.000000
s off
g pCube1
usemtl initialShadingGroup
f 1/18/1 2/2/2 4/21/3 3/23/4
f 3/3/5 4/22/6 6/6/7 5/20/8
f 5/5/9 6/19/10 8/8/11 7/17/12
f 7/7/13 8/15/14 2/10/15 1/9/16
f 2/16/17 8/11/18 6/12/19 4/4/20
f 7/13/21 1/1/22 3/24/23 5/14/24
